<svg xmlns="http://www.w3.org/2000/svg" xmlns:xlink="http://www.w3.org/1999/xlink" width="1280" zoomAndPan="magnify" viewBox="0 0 960 540.000001" height="720" preserveAspectRatio="xMidYMid meet" version="1.0"><defs><clipPath id="274516aa38"><path d="M 0.886719 0 L 959 0 L 959 539 L 0.886719 539 Z M 0.886719 0 " clip-rule="nonzero"/></clipPath><clipPath id="3da7e8389a"><path d="M 880.917969 479.796875 C 880.917969 479 881.078125 478.363281 881.078125 477.40625 L 881.078125 61.597656 C 881.078125 27.765625 854.75 0 822.511719 0 L 59.613281 0 C 27.378906 0 0.886719 27.765625 0.886719 61.597656 L 0.886719 477.40625 C 0.886719 511.234375 27.21875 539 59.453125 539 L 822.355469 539 C 836.554688 539 849.640625 533.574219 859.695312 524.800781 C 876.132812 533.734375 915.386719 551.449219 958.953125 525.4375 C 959.113281 525.4375 919.855469 525.597656 880.917969 479.796875 Z M 880.917969 479.796875 " clip-rule="nonzero"/></clipPath><clipPath id="332c5cfb31"><path d="M 0.886719 0 L 959 0 L 959 539 L 0.886719 539 Z M 0.886719 0 " clip-rule="nonzero"/></clipPath><clipPath id="9a5126d210"><path d="M 880.917969 479.796875 C 880.917969 479 881.078125 478.363281 881.078125 477.40625 L 881.078125 61.597656 C 881.078125 27.765625 854.75 0 822.511719 0 L 59.613281 0 C 27.378906 0 0.886719 27.765625 0.886719 61.597656 L 0.886719 477.40625 C 0.886719 511.234375 27.21875 539 59.453125 539 L 822.355469 539 C 836.554688 539 849.640625 533.574219 859.695312 524.800781 C 876.132812 533.734375 915.386719 551.449219 958.953125 525.4375 C 959.113281 525.4375 919.855469 525.597656 880.917969 479.796875 Z M 880.917969 479.796875 " clip-rule="nonzero"/></clipPath><clipPath id="9828f90235"><rect x="0" width="959" y="0" height="539"/></clipPath></defs><g clip-path="url(#274516aa38)"><g clip-path="url(#3da7e8389a)"><g transform="matrix(1, 0, 0, 1, 0.000000000000000222, 0.000000000000017795)"><g clip-path="url(#9828f90235)"><g clip-path="url(#332c5cfb31)"><g clip-path="url(#9a5126d210)"><path fill="#dfb597" d="M 0.886719 0 L 959.113281 0 L 959.113281 538.902344 L 0.886719 538.902344 Z M 0.886719 0 " fill-opacity="1" fill-rule="nonzero"/></g></g></g></g></g></g></svg>