<svg xmlns="http://www.w3.org/2000/svg" xmlns:xlink="http://www.w3.org/1999/xlink" width="800" zoomAndPan="magnify" viewBox="0 0 600 491.999982" height="656" preserveAspectRatio="xMidYMid meet" version="1.0"><defs><clipPath id="55100209a9"><path d="M 222.171875 137 L 384 137 L 384 245.433594 L 222.171875 245.433594 Z M 222.171875 137 " clip-rule="nonzero"/></clipPath><clipPath id="f39fc33a5b"><path d="M 165.121094 46.902344 L 440 46.902344 L 440 183.277344 L 165.121094 183.277344 Z M 165.121094 46.902344 " clip-rule="nonzero"/></clipPath></defs><rect x="-60" width="720" fill="#ffffff" y="-49.199998" height="590.399979" fill-opacity="1"/><rect x="-60" width="720" fill="#ffffff" y="-49.199998" height="590.399979" fill-opacity="1"/><g clip-path="url(#55100209a9)"><path fill="#9f0b0b" d="M 364.503906 204.6875 L 333.652344 204.6875 C 322.292969 204.6875 311.328125 208.796875 302.800781 215.984375 C 294.242188 208.769531 283.304688 204.6875 271.949219 204.6875 L 241.132812 204.6875 L 241.132812 137.582031 L 222.339844 137.582031 L 222.339844 223.496094 L 271.972656 223.496094 C 281.273438 223.496094 289.75 227.777344 295.285156 235.238281 L 302.824219 245.433594 L 310.367188 235.238281 C 315.902344 227.777344 324.378906 223.496094 333.675781 223.496094 L 383.3125 223.496094 L 383.3125 137.582031 L 364.503906 137.582031 Z M 364.503906 204.6875 " fill-opacity="1" fill-rule="nonzero"/></g><path fill="#9f0b0b" d="M 256.730469 159.136719 L 278.007812 159.136719 L 278.007812 180.425781 L 256.730469 180.425781 Z M 256.730469 159.136719 " fill-opacity="1" fill-rule="nonzero"/><path fill="#9f0b0b" d="M 292.15625 159.136719 L 313.441406 159.136719 L 313.441406 180.425781 L 292.15625 180.425781 Z M 292.15625 159.136719 " fill-opacity="1" fill-rule="nonzero"/><path fill="#9f0b0b" d="M 327.589844 159.136719 L 348.867188 159.136719 L 348.867188 180.425781 L 327.589844 180.425781 Z M 327.589844 159.136719 " fill-opacity="1" fill-rule="nonzero"/><g clip-path="url(#f39fc33a5b)"><path fill="#9f0b0b" d="M 417.613281 154.09375 L 417.613281 103.503906 L 439.90625 95.582031 L 302.800781 46.925781 L 165.691406 95.582031 L 302.800781 144.25 L 398.804688 110.164062 L 398.804688 154.09375 C 394.773438 157 392.136719 161.75 392.136719 167.125 C 392.136719 176.003906 399.320312 183.1875 408.207031 183.1875 C 417.09375 183.1875 424.28125 176.003906 424.28125 167.125 C 424.28125 161.777344 421.640625 157.035156 417.613281 154.09375 Z M 417.613281 154.09375 " fill-opacity="1" fill-rule="nonzero"/></g><path fill="#0c2f5d" d="M 186.144531 338.433594 L 172.597656 338.433594 L 167.675781 323.421875 L 142.714844 323.421875 L 137.832031 338.433594 L 124.601562 338.433594 L 147.101562 273.253906 L 163.648438 273.253906 Z M 154.589844 286.875 L 146.210938 312.582031 L 164.109375 312.582031 L 155.695312 286.875 Z M 154.589844 286.875 " fill-opacity="0.4" fill-rule="nonzero"/><path fill="#0c2f5d" d="M 210.109375 339.359375 C 206.757812 339.359375 203.671875 338.96875 200.875 338.183594 C 198.09375 337.398438 195.714844 336.320312 193.742188 334.941406 C 191.765625 333.566406 190.300781 331.980469 189.359375 330.199219 L 196.203125 322.78125 L 197.128906 322.78125 C 198.769531 324.992188 200.703125 326.648438 202.941406 327.738281 C 205.171875 328.832031 207.59375 329.378906 210.214844 329.378906 C 212.613281 329.378906 214.421875 328.949219 215.636719 328.09375 C 216.847656 327.238281 217.453125 326.007812 217.453125 324.386719 C 217.453125 323.15625 217.007812 322.105469 216.136719 321.246094 C 215.28125 320.390625 213.863281 319.734375 211.890625 319.25 L 205.402344 317.71875 C 200.527344 316.558594 196.960938 314.785156 194.707031 312.40625 C 192.46875 310.007812 191.355469 306.96875 191.355469 303.277344 C 191.355469 300.210938 192.121094 297.554688 193.671875 295.289062 C 195.242188 293.035156 197.433594 291.316406 200.269531 290.121094 C 203.121094 288.933594 206.4375 288.335938 210.214844 288.335938 C 214.636719 288.335938 218.292969 288.980469 221.199219 290.261719 C 224.121094 291.527344 226.40625 293.222656 228.042969 295.363281 L 221.449219 302.492188 L 220.558594 302.492188 C 219.175781 300.949219 217.632812 299.820312 215.921875 299.105469 C 214.210938 298.390625 212.300781 298.035156 210.214844 298.035156 C 205.339844 298.035156 202.90625 299.558594 202.90625 302.601562 C 202.90625 303.882812 203.351562 304.933594 204.261719 305.738281 C 205.160156 306.523438 206.757812 307.164062 209.039062 307.664062 L 215.101562 309.019531 C 220.09375 310.085938 223.738281 311.816406 226.046875 314.1875 C 228.347656 316.542969 229.507812 319.707031 229.507812 323.671875 C 229.507812 326.792969 228.730469 329.539062 227.1875 331.910156 C 225.636719 334.289062 223.410156 336.132812 220.484375 337.4375 C 217.578125 338.71875 214.121094 339.359375 210.109375 339.359375 Z M 210.109375 339.359375 " fill-opacity="0.4" fill-rule="nonzero"/><path fill="#0c2f5d" d="M 239.53125 358.367188 L 239.53125 289.265625 L 251.867188 289.265625 L 251.867188 295.683594 L 252.792969 295.859375 C 254.265625 293.363281 256.21875 291.492188 258.640625 290.226562 C 261.085938 288.96875 263.9375 288.335938 267.199219 288.335938 C 271.140625 288.335938 274.589844 289.28125 277.539062 291.152344 C 280.507812 293.007812 282.816406 295.851562 284.457031 299.675781 C 286.113281 303.507812 286.953125 308.234375 286.953125 313.867188 C 286.953125 319.484375 286.078125 324.191406 284.351562 327.988281 C 282.613281 331.792969 280.195312 334.644531 277.113281 336.542969 C 274.019531 338.425781 270.453125 339.359375 266.414062 339.359375 C 263.347656 339.359375 260.691406 338.84375 258.464844 337.828125 C 256.226562 336.8125 254.335938 335.214844 252.792969 333.050781 L 251.867188 333.226562 L 251.867188 358.367188 Z M 262.957031 328.878906 C 266.636719 328.878906 269.429688 327.683594 271.335938 325.277344 C 273.234375 322.878906 274.1875 319.074219 274.1875 313.867188 C 274.1875 308.660156 273.234375 304.863281 271.335938 302.457031 C 269.429688 300.03125 266.636719 298.820312 262.957031 298.820312 C 259.507812 298.820312 256.769531 300.066406 254.753906 302.5625 C 252.730469 305.058594 251.726562 308.832031 251.726562 313.867188 C 251.726562 318.886719 252.730469 322.636719 254.753906 325.132812 C 256.769531 327.628906 259.507812 328.878906 262.957031 328.878906 Z M 262.957031 328.878906 " fill-opacity="0.4" fill-rule="nonzero"/><path fill="#0c2f5d" d="M 304.535156 283.382812 C 302.324219 283.382812 300.515625 282.703125 299.113281 281.347656 C 297.707031 279.992188 297.011719 278.246094 297.011719 276.105469 C 297.011719 274.019531 297.707031 272.292969 299.113281 270.9375 C 300.515625 269.582031 302.324219 268.90625 304.535156 268.90625 C 306.03125 268.90625 307.351562 269.214844 308.492188 269.832031 C 309.652344 270.457031 310.5625 271.3125 311.203125 272.398438 C 311.84375 273.496094 312.164062 274.734375 312.164062 276.105469 C 312.164062 277.515625 311.84375 278.773438 311.203125 279.886719 C 310.5625 280.984375 309.652344 281.839844 308.492188 282.453125 C 307.351562 283.078125 306.03125 283.382812 304.535156 283.382812 Z M 298.402344 338.433594 L 298.402344 289.265625 L 310.738281 289.265625 L 310.738281 338.433594 Z M 298.402344 338.433594 " fill-opacity="0.4" fill-rule="nonzero"/><path fill="#0c2f5d" d="M 324.875 338.433594 L 324.875 289.265625 L 336.855469 289.265625 L 336.855469 296.574219 L 337.78125 296.753906 C 338.96875 294.023438 340.527344 292.027344 342.453125 290.761719 C 344.394531 289.476562 346.75 288.835938 349.511719 288.835938 C 352.3125 288.835938 354.441406 289.316406 355.894531 290.261719 L 353.792969 300.886719 L 352.863281 301.066406 C 352.054688 300.761719 351.277344 300.53125 350.546875 300.390625 C 349.808594 300.230469 348.90625 300.140625 347.835938 300.140625 C 344.386719 300.140625 341.75 301.351562 339.921875 303.777344 C 338.113281 306.199219 337.210938 310.085938 337.210938 315.4375 L 337.210938 338.433594 Z M 324.875 338.433594 " fill-opacity="0.4" fill-rule="nonzero"/><path fill="#0c2f5d" d="M 404.925781 316.648438 L 373.300781 316.648438 C 373.65625 320.925781 374.871094 324.046875 376.9375 325.988281 C 379.023438 327.914062 381.875 328.878906 385.496094 328.878906 C 388.292969 328.878906 390.574219 328.363281 392.339844 327.308594 C 394.097656 326.265625 395.515625 324.671875 396.585938 322.53125 L 397.511719 322.53125 L 405.710938 327.773438 C 404.117188 331.222656 401.691406 334.011719 398.4375 336.152344 C 395.203125 338.292969 390.886719 339.359375 385.496094 339.359375 C 380.40625 339.359375 376.011719 338.398438 372.300781 336.472656 C 368.613281 334.546875 365.757812 331.675781 363.746094 327.84375 C 361.746094 324.019531 360.75 319.359375 360.75 313.867188 C 360.75 308.285156 361.792969 303.582031 363.886719 299.746094 C 366 295.921875 368.851562 293.070312 372.445312 291.191406 C 376.054688 289.292969 380.109375 288.335938 384.601562 288.335938 C 391.539062 288.335938 396.851562 290.183594 400.542969 293.863281 C 404.25 297.554688 406.105469 302.957031 406.105469 310.085938 C 406.105469 312.679688 406.015625 314.6875 405.855469 316.113281 Z M 394.300781 308.660156 C 394.175781 304.910156 393.3125 302.191406 391.699219 300.496094 C 390.078125 298.785156 387.714844 297.929688 384.601562 297.929688 C 378.347656 297.929688 374.671875 301.511719 373.585938 308.660156 Z M 394.300781 308.660156 " fill-opacity="0.4" fill-rule="nonzero"/><path fill="#0c2f5d" d="M 430.195312 339.359375 C 425.746094 339.359375 422.359375 338.175781 420.03125 335.796875 C 417.695312 333.398438 416.539062 329.761719 416.539062 324.886719 L 416.539062 269.511719 L 428.875 269.511719 L 428.875 324.386719 C 428.875 327.378906 430.121094 328.878906 432.617188 328.878906 C 433.332031 328.878906 434.089844 328.761719 434.898438 328.523438 L 435.542969 328.699219 L 436.648438 338.21875 C 435.953125 338.578125 435.042969 338.84375 433.902344 339.039062 C 432.777344 339.253906 431.546875 339.359375 430.195312 339.359375 Z M 430.195312 339.359375 " fill-opacity="0.4" fill-rule="nonzero"/><path fill="#0c2f5d" d="M 448.894531 359.292969 C 446.769531 359.292969 444.863281 359.125 443.152344 358.792969 C 441.457031 358.480469 440.085938 358.054688 439.015625 357.511719 L 440.976562 347.527344 L 441.761719 347.277344 C 442.492188 347.652344 443.410156 347.964844 444.507812 348.203125 C 445.621094 348.4375 446.761719 348.5625 447.929688 348.5625 C 449.898438 348.5625 451.550781 348.292969 452.886719 347.777344 C 454.214844 347.25 455.328125 346.386719 456.238281 345.171875 C 457.164062 343.980469 457.984375 342.320312 458.699219 340.179688 L 439.085938 289.265625 L 452.03125 289.265625 L 464.226562 323.457031 L 465.292969 323.457031 L 477.203125 289.265625 L 489.753906 289.265625 L 470.035156 341.5 C 468.441406 345.726562 466.703125 349.132812 464.832031 351.699219 C 462.949219 354.265625 460.710938 356.164062 458.128906 357.402344 C 455.558594 358.660156 452.476562 359.292969 448.894531 359.292969 Z M 448.894531 359.292969 " fill-opacity="0.4" fill-rule="nonzero"/><path fill="#0c2f5d" d="M 182.113281 334.398438 L 168.5625 334.398438 L 163.640625 319.390625 L 138.683594 319.390625 L 133.796875 334.398438 L 120.570312 334.398438 L 143.066406 269.21875 L 159.613281 269.21875 Z M 150.554688 282.839844 L 142.175781 308.550781 L 160.074219 308.550781 L 151.660156 282.839844 Z M 150.554688 282.839844 " fill-opacity="1" fill-rule="nonzero"/><path fill="#0c2f5d" d="M 206.074219 335.328125 C 202.722656 335.328125 199.640625 334.933594 196.839844 334.152344 C 194.058594 333.367188 191.679688 332.289062 189.710938 330.90625 C 187.730469 329.53125 186.269531 327.945312 185.324219 326.164062 L 192.167969 318.746094 L 193.097656 318.746094 C 194.738281 320.957031 196.671875 322.617188 198.910156 323.703125 C 201.136719 324.800781 203.5625 325.34375 206.183594 325.34375 C 208.582031 325.34375 210.390625 324.914062 211.601562 324.058594 C 212.8125 323.203125 213.421875 321.972656 213.421875 320.351562 C 213.421875 319.121094 212.976562 318.070312 212.101562 317.214844 C 211.246094 316.359375 209.828125 315.699219 207.859375 315.21875 L 201.367188 313.683594 C 196.492188 312.523438 192.925781 310.75 190.671875 308.371094 C 188.433594 305.972656 187.320312 302.933594 187.320312 299.242188 C 187.320312 296.175781 188.085938 293.519531 189.636719 291.257812 C 191.207031 289 193.398438 287.28125 196.234375 286.085938 C 199.085938 284.902344 202.402344 284.304688 206.183594 284.304688 C 210.605469 284.304688 214.257812 284.945312 217.164062 286.230469 C 220.089844 287.496094 222.371094 289.1875 224.011719 291.328125 L 217.414062 298.457031 L 216.523438 298.457031 C 215.140625 296.917969 213.597656 295.785156 211.886719 295.070312 C 210.175781 294.359375 208.269531 294 206.183594 294 C 201.304688 294 198.871094 295.527344 198.871094 298.566406 C 198.871094 299.847656 199.320312 300.902344 200.226562 301.703125 C 201.128906 302.488281 202.722656 303.128906 205.003906 303.628906 L 211.066406 304.984375 C 216.058594 306.054688 219.703125 307.78125 222.015625 310.152344 C 224.3125 312.507812 225.472656 315.671875 225.472656 319.636719 C 225.472656 322.757812 224.695312 325.503906 223.15625 327.875 C 221.605469 330.253906 219.375 332.101562 216.453125 333.402344 C 213.546875 334.683594 210.085938 335.328125 206.074219 335.328125 Z M 206.074219 335.328125 " fill-opacity="1" fill-rule="nonzero"/><path fill="#0c2f5d" d="M 235.496094 354.332031 L 235.496094 285.230469 L 247.832031 285.230469 L 247.832031 291.648438 L 248.761719 291.828125 C 250.230469 289.332031 252.183594 287.457031 254.609375 286.191406 C 257.050781 284.9375 259.902344 284.304688 263.164062 284.304688 C 267.105469 284.304688 270.554688 285.25 273.503906 287.121094 C 276.472656 288.972656 278.78125 291.816406 280.421875 295.640625 C 282.082031 299.476562 282.917969 304.199219 282.917969 309.832031 C 282.917969 315.449219 282.046875 320.15625 280.316406 323.953125 C 278.578125 327.757812 276.164062 330.613281 273.078125 332.511719 C 269.984375 334.390625 266.417969 335.328125 262.382812 335.328125 C 259.316406 335.328125 256.660156 334.808594 254.429688 333.792969 C 252.191406 332.777344 250.300781 331.183594 248.761719 329.015625 L 247.832031 329.195312 L 247.832031 354.332031 Z M 258.921875 324.84375 C 262.605469 324.84375 265.394531 323.648438 267.300781 321.242188 C 269.199219 318.84375 270.152344 315.039062 270.152344 309.832031 C 270.152344 304.628906 269.199219 300.828125 267.300781 298.421875 C 265.394531 296 262.605469 294.785156 258.921875 294.785156 C 255.472656 294.785156 252.734375 296.035156 250.722656 298.53125 C 248.699219 301.027344 247.691406 304.796875 247.691406 309.832031 C 247.691406 314.851562 248.699219 318.605469 250.722656 321.101562 C 252.734375 323.597656 255.472656 324.84375 258.921875 324.84375 Z M 258.921875 324.84375 " fill-opacity="1" fill-rule="nonzero"/><path fill="#0c2f5d" d="M 300.5 279.347656 C 298.289062 279.347656 296.480469 278.667969 295.082031 277.316406 C 293.671875 275.960938 292.976562 274.210938 292.976562 272.074219 C 292.976562 269.988281 293.671875 268.257812 295.082031 266.902344 C 296.480469 265.546875 298.289062 264.871094 300.5 264.871094 C 302 264.871094 303.316406 265.183594 304.457031 265.796875 C 305.617188 266.421875 306.527344 267.277344 307.167969 268.363281 C 307.808594 269.460938 308.132812 270.699219 308.132812 272.074219 C 308.132812 273.480469 307.808594 274.738281 307.167969 275.851562 C 306.527344 276.949219 305.617188 277.804688 304.457031 278.417969 C 303.316406 279.042969 302 279.347656 300.5 279.347656 Z M 294.367188 334.398438 L 294.367188 285.230469 L 306.703125 285.230469 L 306.703125 334.398438 Z M 294.367188 334.398438 " fill-opacity="1" fill-rule="nonzero"/><path fill="#0c2f5d" d="M 320.839844 334.398438 L 320.839844 285.230469 L 332.820312 285.230469 L 332.820312 292.539062 L 333.746094 292.71875 C 334.933594 289.992188 336.492188 287.992188 338.417969 286.726562 C 340.363281 285.445312 342.714844 284.800781 345.480469 284.800781 C 348.277344 284.800781 350.40625 285.285156 351.859375 286.230469 L 349.757812 296.855469 L 348.832031 297.03125 C 348.019531 296.730469 347.242188 296.496094 346.511719 296.355469 C 345.773438 296.195312 344.871094 296.105469 343.800781 296.105469 C 340.351562 296.105469 337.714844 297.316406 335.886719 299.742188 C 334.078125 302.167969 333.175781 306.054688 333.175781 311.402344 L 333.175781 334.398438 Z M 320.839844 334.398438 " fill-opacity="1" fill-rule="nonzero"/><path fill="#0c2f5d" d="M 400.894531 312.613281 L 369.265625 312.613281 C 369.621094 316.894531 370.835938 320.011719 372.902344 321.957031 C 374.988281 323.882812 377.839844 324.84375 381.460938 324.84375 C 384.261719 324.84375 386.542969 324.328125 388.308594 323.277344 C 390.0625 322.234375 391.480469 320.636719 392.550781 318.496094 L 393.476562 318.496094 L 401.679688 323.738281 C 400.082031 327.1875 397.65625 329.980469 394.402344 332.117188 C 391.167969 334.257812 386.855469 335.328125 381.460938 335.328125 C 376.371094 335.328125 371.976562 334.363281 368.269531 332.4375 C 364.578125 330.511719 361.726562 327.644531 359.710938 323.808594 C 357.714844 319.984375 356.714844 315.324219 356.714844 309.832031 C 356.714844 304.253906 357.757812 299.546875 359.851562 295.714844 C 361.964844 291.890625 364.816406 289.035156 368.410156 287.15625 C 372.019531 285.257812 376.078125 284.304688 380.570312 284.304688 C 387.503906 284.304688 392.816406 286.148438 396.507812 289.828125 C 400.214844 293.519531 402.070312 298.921875 402.070312 306.054688 C 402.070312 308.648438 401.980469 310.652344 401.820312 312.078125 Z M 390.269531 304.628906 C 390.144531 300.875 389.277344 298.15625 387.664062 296.460938 C 386.042969 294.75 383.679688 293.894531 380.570312 293.894531 C 374.3125 293.894531 370.640625 297.476562 369.550781 304.628906 Z M 390.269531 304.628906 " fill-opacity="1" fill-rule="nonzero"/><path fill="#0c2f5d" d="M 426.160156 335.328125 C 421.710938 335.328125 418.324219 334.140625 415.996094 331.761719 C 413.664062 329.363281 412.503906 325.726562 412.503906 320.851562 L 412.503906 265.476562 L 424.839844 265.476562 L 424.839844 320.351562 C 424.839844 323.347656 426.089844 324.84375 428.585938 324.84375 C 429.296875 324.84375 430.054688 324.726562 430.867188 324.488281 L 431.507812 324.667969 L 432.613281 334.1875 C 431.917969 334.542969 431.007812 334.808594 429.867188 335.007812 C 428.746094 335.21875 427.515625 335.328125 426.160156 335.328125 Z M 426.160156 335.328125 " fill-opacity="1" fill-rule="nonzero"/><path fill="#0c2f5d" d="M 444.859375 355.257812 C 442.738281 355.257812 440.828125 355.089844 439.117188 354.761719 C 437.425781 354.449219 436.050781 354.019531 434.980469 353.476562 L 436.941406 343.492188 L 437.726562 343.242188 C 438.457031 343.617188 439.375 343.929688 440.472656 344.171875 C 441.585938 344.402344 442.726562 344.527344 443.894531 344.527344 C 445.867188 344.527344 447.515625 344.257812 448.851562 343.742188 C 450.179688 343.214844 451.292969 342.351562 452.203125 341.140625 C 453.132812 339.945312 453.949219 338.285156 454.664062 336.148438 L 435.054688 285.230469 L 447.996094 285.230469 L 460.191406 319.425781 L 461.261719 319.425781 L 473.167969 285.230469 L 485.71875 285.230469 L 466.003906 337.464844 C 464.40625 341.691406 462.667969 345.097656 460.796875 347.664062 C 458.917969 350.230469 456.679688 352.128906 454.09375 353.371094 C 451.527344 354.625 448.441406 355.257812 444.859375 355.257812 Z M 444.859375 355.257812 " fill-opacity="1" fill-rule="nonzero"/><path fill="#ffffff" d="M 214.769531 402.300781 C 212.988281 402.300781 211.417969 401.941406 210.0625 401.230469 C 208.707031 400.5 207.648438 399.394531 206.890625 397.914062 C 206.125 396.417969 205.75 394.554688 205.75 392.316406 C 205.75 390.105469 206.125 388.269531 206.890625 386.789062 C 207.648438 385.292969 208.707031 384.1875 210.0625 383.472656 C 211.417969 382.742188 212.988281 382.367188 214.769531 382.367188 C 216.554688 382.367188 218.121094 382.742188 219.476562 383.472656 C 220.832031 384.1875 221.882812 385.292969 222.648438 386.789062 C 223.40625 388.269531 223.792969 390.105469 223.792969 392.316406 C 223.792969 394.554688 223.40625 396.417969 222.648438 397.914062 C 221.882812 399.394531 220.832031 400.5 219.476562 401.230469 C 218.121094 401.941406 216.554688 402.300781 214.769531 402.300781 Z M 214.769531 398.984375 C 216.410156 398.984375 217.660156 398.464844 218.515625 397.414062 C 219.386719 396.34375 219.832031 394.652344 219.832031 392.316406 C 219.832031 390.015625 219.386719 388.339844 218.515625 387.289062 C 217.660156 386.21875 216.410156 385.683594 214.769531 385.683594 C 213.128906 385.683594 211.863281 386.21875 210.992188 387.289062 C 210.109375 388.339844 209.671875 390.015625 209.671875 392.316406 C 209.671875 394.652344 210.109375 396.34375 210.992188 397.414062 C 211.863281 398.464844 213.128906 398.984375 214.769531 398.984375 Z M 214.769531 398.984375 " fill-opacity="1" fill-rule="nonzero"/><path fill="#ffffff" d="M 231.542969 402.015625 L 227.835938 402.015625 L 227.835938 382.652344 L 232.222656 382.652344 L 239.992188 395.132812 L 240.316406 395.0625 L 240.316406 382.652344 L 244.023438 382.652344 L 244.023438 402.015625 L 240.101562 402.015625 L 231.863281 388.679688 L 231.542969 388.75 Z M 231.542969 402.015625 " fill-opacity="1" fill-rule="nonzero"/><path fill="#ffffff" d="M 252.871094 382.652344 L 252.871094 398.804688 L 261.570312 398.804688 L 261.570312 402.015625 L 249.054688 402.015625 L 249.054688 382.652344 Z M 252.871094 382.652344 " fill-opacity="1" fill-rule="nonzero"/><path fill="#ffffff" d="M 264.730469 382.652344 L 268.542969 382.652344 L 268.542969 402.015625 L 264.730469 402.015625 Z M 264.730469 382.652344 " fill-opacity="1" fill-rule="nonzero"/><path fill="#ffffff" d="M 277.308594 402.015625 L 273.597656 402.015625 L 273.597656 382.652344 L 277.984375 382.652344 L 285.757812 395.132812 L 286.078125 395.0625 L 286.078125 382.652344 L 289.785156 382.652344 L 289.785156 402.015625 L 285.863281 402.015625 L 277.628906 388.679688 L 277.308594 388.75 Z M 277.308594 402.015625 " fill-opacity="1" fill-rule="nonzero"/><path fill="#ffffff" d="M 298.632812 393.492188 L 298.632812 398.804688 L 307.867188 398.804688 L 307.867188 402.015625 L 294.820312 402.015625 L 294.820312 382.652344 L 307.65625 382.652344 L 307.65625 385.863281 L 298.632812 385.863281 L 298.632812 390.390625 L 306.515625 390.390625 L 306.515625 393.492188 Z M 298.632812 393.492188 " fill-opacity="1" fill-rule="nonzero"/><path fill="#ffffff" d="M 325.910156 402.300781 C 324.128906 402.300781 322.542969 401.933594 321.167969 401.195312 C 319.8125 400.4375 318.753906 399.324219 317.996094 397.84375 C 317.230469 396.34375 316.855469 394.507812 316.855469 392.316406 C 316.855469 390.160156 317.230469 388.324219 317.996094 386.824219 C 318.753906 385.328125 319.8125 384.214844 321.167969 383.472656 C 322.542969 382.742188 324.128906 382.367188 325.910156 382.367188 C 327.765625 382.367188 329.34375 382.742188 330.652344 383.472656 C 331.953125 384.1875 332.882812 385.292969 333.433594 386.789062 L 330.652344 388.5 L 330.332031 388.5 C 329.90625 387.484375 329.332031 386.753906 328.621094 386.324219 C 327.90625 385.878906 327 385.648438 325.910156 385.648438 C 324.289062 385.648438 323.03125 386.183594 322.132812 387.253906 C 321.222656 388.324219 320.777344 390.015625 320.777344 392.316406 C 320.777344 394.625 321.222656 396.308594 322.132812 397.378906 C 323.03125 398.449219 324.289062 398.984375 325.910156 398.984375 C 328.425781 398.984375 329.976562 397.761719 330.546875 395.3125 L 330.867188 395.3125 L 333.683594 396.773438 C 333.15625 398.628906 332.257812 400.019531 330.972656 400.945312 C 329.691406 401.855469 327.996094 402.300781 325.910156 402.300781 Z M 325.910156 402.300781 " fill-opacity="1" fill-rule="nonzero"/><path fill="#ffffff" d="M 340.652344 382.652344 L 340.652344 398.804688 L 349.351562 398.804688 L 349.351562 402.015625 L 336.835938 402.015625 L 336.835938 382.652344 Z M 340.652344 382.652344 " fill-opacity="1" fill-rule="nonzero"/><path fill="#ffffff" d="M 368.554688 402.015625 L 364.527344 402.015625 L 363.0625 397.558594 L 355.648438 397.558594 L 354.222656 402.015625 L 350.261719 402.015625 L 356.964844 382.652344 L 361.886719 382.652344 Z M 359.175781 386.683594 L 356.679688 394.3125 L 362.03125 394.3125 L 359.535156 386.683594 Z M 359.175781 386.683594 " fill-opacity="1" fill-rule="nonzero"/><path fill="#ffffff" d="M 377.433594 402.300781 C 376.078125 402.300781 374.875 402.128906 373.832031 401.800781 C 372.78125 401.46875 371.917969 401.042969 371.230469 400.515625 C 370.535156 399.972656 370 399.367188 369.625 398.699219 L 371.730469 396.132812 L 372.050781 396.132812 C 372.640625 397.011719 373.378906 397.71875 374.261719 398.234375 C 375.160156 398.734375 376.222656 398.984375 377.433594 398.984375 C 378.449219 398.984375 379.226562 398.769531 379.753906 398.339844 C 380.269531 397.894531 380.535156 397.300781 380.535156 396.558594 C 380.535156 396.085938 380.449219 395.695312 380.289062 395.382812 C 380.117188 395.078125 379.832031 394.8125 379.429688 394.597656 C 379.046875 394.382812 378.523438 394.195312 377.863281 394.027344 L 375.367188 393.457031 C 373.628906 393.054688 372.335938 392.40625 371.480469 391.496094 C 370.625 390.570312 370.195312 389.375 370.195312 387.894531 C 370.195312 386.78125 370.464844 385.816406 371.015625 385.007812 C 371.558594 384.175781 372.355469 383.535156 373.40625 383.082031 C 374.449219 382.609375 375.707031 382.367188 377.183594 382.367188 C 378.683594 382.367188 379.949219 382.574219 381 382.972656 C 382.070312 383.355469 382.96875 383.953125 383.710938 384.757812 L 381.820312 387.359375 L 381.464844 387.359375 C 380.910156 386.789062 380.289062 386.359375 379.574219 386.074219 C 378.878906 385.789062 378.085938 385.648438 377.183594 385.648438 C 376.132812 385.648438 375.332031 385.84375 374.761719 386.21875 C 374.207031 386.574219 373.941406 387.074219 373.941406 387.714844 C 373.941406 388.339844 374.128906 388.839844 374.511719 389.214844 C 374.910156 389.570312 375.589844 389.847656 376.542969 390.035156 L 379.074219 390.570312 C 380.945312 390.980469 382.300781 391.65625 383.140625 392.601562 C 383.996094 393.554688 384.421875 394.792969 384.421875 396.308594 C 384.421875 397.523438 384.15625 398.582031 383.640625 399.484375 C 383.140625 400.367188 382.355469 401.050781 381.285156 401.550781 C 380.234375 402.050781 378.949219 402.300781 377.433594 402.300781 Z M 377.433594 402.300781 " fill-opacity="1" fill-rule="nonzero"/><path fill="#ffffff" d="M 394.0625 402.300781 C 392.707031 402.300781 391.503906 402.128906 390.460938 401.800781 C 389.410156 401.46875 388.542969 401.042969 387.855469 400.515625 C 387.160156 399.972656 386.628906 399.367188 386.253906 398.699219 L 388.355469 396.132812 L 388.675781 396.132812 C 389.265625 397.011719 390.003906 397.71875 390.886719 398.234375 C 391.789062 398.734375 392.847656 398.984375 394.0625 398.984375 C 395.078125 398.984375 395.851562 398.769531 396.378906 398.339844 C 396.894531 397.894531 397.164062 397.300781 397.164062 396.558594 C 397.164062 396.085938 397.074219 395.695312 396.914062 395.382812 C 396.746094 395.078125 396.460938 394.8125 396.058594 394.597656 C 395.675781 394.382812 395.148438 394.195312 394.488281 394.027344 L 391.992188 393.457031 C 390.253906 393.054688 388.960938 392.40625 388.105469 391.496094 C 387.25 390.570312 386.824219 389.375 386.824219 387.894531 C 386.824219 386.78125 387.089844 385.816406 387.644531 385.007812 C 388.1875 384.175781 388.980469 383.535156 390.03125 383.082031 C 391.074219 382.609375 392.332031 382.367188 393.8125 382.367188 C 395.308594 382.367188 396.574219 382.574219 397.628906 382.972656 C 398.695312 383.355469 399.597656 383.953125 400.335938 384.757812 L 398.445312 387.359375 L 398.089844 387.359375 C 397.539062 386.789062 396.914062 386.359375 396.199219 386.074219 C 395.503906 385.789062 394.710938 385.648438 393.8125 385.648438 C 392.761719 385.648438 391.957031 385.84375 391.386719 386.21875 C 390.835938 386.574219 390.566406 387.074219 390.566406 387.714844 C 390.566406 388.339844 390.753906 388.839844 391.136719 389.214844 C 391.539062 389.570312 392.214844 389.847656 393.171875 390.035156 L 395.703125 390.570312 C 397.574219 390.980469 398.929688 391.65625 399.765625 392.601562 C 400.621094 393.554688 401.050781 394.792969 401.050781 396.308594 C 401.050781 397.523438 400.78125 398.582031 400.265625 399.484375 C 399.765625 400.367188 398.980469 401.050781 397.914062 401.550781 C 396.859375 402.050781 395.578125 402.300781 394.0625 402.300781 Z M 394.0625 402.300781 " fill-opacity="1" fill-rule="nonzero"/><path fill="#0d356b" d="M 171.328125 408.824219 C 169.757812 408.824219 168.347656 408.628906 167.117188 408.253906 C 165.90625 407.878906 164.890625 407.378906 164.089844 406.757812 C 163.277344 406.113281 162.660156 405.417969 162.234375 404.652344 L 164.695312 401.65625 L 165.050781 401.65625 C 165.738281 402.65625 166.601562 403.46875 167.652344 404.082031 C 168.695312 404.679688 169.917969 404.972656 171.328125 404.972656 C 172.539062 404.972656 173.4375 404.722656 174.035156 404.226562 C 174.652344 403.707031 174.964844 403.003906 174.964844 402.121094 C 174.964844 401.578125 174.855469 401.121094 174.640625 400.765625 C 174.445312 400.410156 174.125 400.105469 173.679688 399.839844 C 173.226562 399.582031 172.617188 399.359375 171.859375 399.160156 L 168.9375 398.519531 C 166.886719 398.046875 165.371094 397.273438 164.375 396.203125 C 163.394531 395.113281 162.910156 393.707031 162.910156 391.996094 C 162.910156 390.710938 163.230469 389.589844 163.875 388.609375 C 164.515625 387.636719 165.441406 386.886719 166.65625 386.359375 C 167.867188 385.816406 169.328125 385.542969 171.042969 385.542969 C 172.769531 385.542969 174.257812 385.78125 175.5 386.253906 C 176.753906 386.707031 177.816406 387.414062 178.671875 388.359375 L 176.460938 391.390625 L 176.070312 391.390625 C 175.425781 390.730469 174.6875 390.230469 173.859375 389.890625 C 173.046875 389.535156 172.109375 389.355469 171.042969 389.355469 C 169.800781 389.355469 168.867188 389.589844 168.222656 390.035156 C 167.601562 390.460938 167.296875 391.058594 167.296875 391.816406 C 167.296875 392.53125 167.511719 393.101562 167.9375 393.527344 C 168.382812 393.957031 169.167969 394.292969 170.292969 394.527344 L 173.25 395.132812 C 175.460938 395.585938 177.050781 396.371094 178.03125 397.484375 C 179.027344 398.609375 179.527344 400.054688 179.527344 401.835938 C 179.527344 403.246094 179.214844 404.464844 178.601562 405.507812 C 178.003906 406.5625 177.085938 407.378906 175.855469 407.96875 C 174.617188 408.539062 173.109375 408.824219 171.328125 408.824219 Z M 171.328125 408.824219 " fill-opacity="0.302" fill-rule="nonzero"/><path fill="#0d356b" d="M 183.203125 415.421875 L 183.203125 391.425781 L 187.480469 391.425781 L 187.480469 393.671875 L 187.800781 393.707031 C 188.320312 392.851562 188.996094 392.207031 189.832031 391.78125 C 190.691406 391.335938 191.6875 391.105469 192.828125 391.105469 C 194.183594 391.105469 195.371094 391.441406 196.394531 392.101562 C 197.4375 392.742188 198.25 393.734375 198.820312 395.0625 C 199.390625 396.371094 199.675781 398.011719 199.675781 399.980469 C 199.675781 401.933594 199.363281 403.574219 198.746094 404.902344 C 198.152344 406.214844 197.320312 407.203125 196.253906 407.863281 C 195.183594 408.503906 193.941406 408.824219 192.542969 408.824219 C 191.472656 408.824219 190.546875 408.644531 189.761719 408.289062 C 188.996094 407.933594 188.34375 407.378906 187.800781 406.613281 L 187.480469 406.683594 L 187.480469 415.421875 Z M 191.332031 405.1875 C 192.613281 405.1875 193.585938 404.777344 194.253906 403.941406 C 194.914062 403.109375 195.253906 401.792969 195.253906 399.980469 C 195.253906 398.179688 194.914062 396.863281 194.253906 396.023438 C 193.585938 395.167969 192.613281 394.742188 191.332031 394.742188 C 190.136719 394.742188 189.191406 395.1875 188.480469 396.058594 C 187.785156 396.914062 187.445312 398.226562 187.445312 399.980469 C 187.445312 401.71875 187.785156 403.03125 188.480469 403.902344 C 189.191406 404.761719 190.136719 405.1875 191.332031 405.1875 Z M 191.332031 405.1875 " fill-opacity="0.302" fill-rule="nonzero"/><path fill="#0d356b" d="M 218.046875 400.945312 L 207.066406 400.945312 C 207.207031 402.425781 207.636719 403.503906 208.347656 404.1875 C 209.0625 404.859375 210.042969 405.1875 211.308594 405.1875 C 212.28125 405.1875 213.0625 405.007812 213.660156 404.652344 C 214.277344 404.277344 214.777344 403.71875 215.160156 402.976562 L 215.480469 402.976562 L 218.332031 404.796875 C 217.78125 406.007812 216.941406 406.988281 215.800781 407.71875 C 214.675781 408.460938 213.179688 408.824219 211.308594 408.824219 C 209.542969 408.824219 208.027344 408.496094 206.746094 407.828125 C 205.460938 407.167969 204.460938 406.167969 203.75 404.832031 C 203.054688 403.503906 202.714844 401.890625 202.714844 399.980469 C 202.714844 398.039062 203.082031 396.398438 203.820312 395.0625 C 204.550781 393.734375 205.539062 392.742188 206.78125 392.101562 C 208.035156 391.441406 209.4375 391.105469 210.988281 391.105469 C 213.410156 391.105469 215.265625 391.746094 216.550781 393.027344 C 217.832031 394.3125 218.476562 396.195312 218.476562 398.664062 C 218.476562 399.570312 218.4375 400.265625 218.367188 400.765625 Z M 214.375 398.164062 C 214.320312 396.863281 214.019531 395.910156 213.449219 395.3125 C 212.894531 394.722656 212.074219 394.417969 210.988281 394.417969 C 208.820312 394.417969 207.546875 395.667969 207.171875 398.164062 Z M 214.375 398.164062 " fill-opacity="0.302" fill-rule="nonzero"/><path fill="#0d356b" d="M 226.402344 408.824219 C 225.304688 408.824219 224.351562 408.621094 223.550781 408.21875 C 222.738281 407.816406 222.105469 407.238281 221.660156 406.472656 C 221.230469 405.6875 221.019531 404.75 221.019531 403.65625 C 221.019531 402.636719 221.230469 401.78125 221.660156 401.085938 C 222.105469 400.402344 222.78125 399.839844 223.691406 399.410156 C 224.59375 398.984375 225.777344 398.652344 227.257812 398.414062 C 228.273438 398.253906 229.050781 398.074219 229.574219 397.878906 C 230.121094 397.664062 230.476562 397.441406 230.644531 397.199219 C 230.832031 396.941406 230.929688 396.621094 230.929688 396.238281 C 230.929688 395.695312 230.734375 395.273438 230.359375 394.988281 C 229.976562 394.703125 229.34375 394.5625 228.46875 394.5625 C 227.515625 394.5625 226.617188 394.777344 225.761719 395.203125 C 224.90625 395.613281 224.15625 396.167969 223.515625 396.878906 L 223.230469 396.878906 L 221.410156 394.171875 C 222.285156 393.199219 223.34375 392.449219 224.582031 391.921875 C 225.839844 391.378906 227.203125 391.105469 228.683594 391.105469 C 230.9375 391.105469 232.570312 391.59375 233.570312 392.566406 C 234.585938 393.519531 235.101562 394.875 235.101562 396.628906 L 235.101562 404.046875 C 235.101562 404.8125 235.433594 405.1875 236.101562 405.1875 C 236.359375 405.1875 236.617188 405.144531 236.886719 405.046875 L 237.097656 405.117188 L 237.382812 408.113281 C 237.144531 408.253906 236.8125 408.378906 236.386719 408.46875 C 235.976562 408.558594 235.511719 408.609375 234.996094 408.609375 C 233.96875 408.609375 233.175781 408.421875 232.605469 408.039062 C 232.035156 407.640625 231.625 407.023438 231.394531 406.1875 L 231.074219 406.152344 C 230.234375 407.933594 228.683594 408.824219 226.402344 408.824219 Z M 227.757812 405.617188 C 228.753906 405.617188 229.539062 405.285156 230.109375 404.617188 C 230.699219 403.957031 231 403.03125 231 401.835938 L 231 400.125 L 230.714844 400.054688 C 230.449219 400.265625 230.109375 400.445312 229.683594 400.589844 C 229.273438 400.714844 228.683594 400.835938 227.898438 400.980469 C 226.972656 401.148438 226.304688 401.425781 225.902344 401.800781 C 225.492188 402.15625 225.296875 402.683594 225.296875 403.371094 C 225.296875 404.109375 225.511719 404.671875 225.9375 405.046875 C 226.367188 405.429688 226.972656 405.617188 227.757812 405.617188 Z M 227.757812 405.617188 " fill-opacity="0.302" fill-rule="nonzero"/><path fill="#0d356b" d="M 240.191406 408.503906 L 240.191406 384.578125 L 244.46875 384.578125 L 244.46875 397.84375 L 244.898438 397.84375 L 249.816406 391.425781 L 254.167969 391.425781 L 254.167969 391.78125 L 248.390625 399.269531 L 254.84375 408.113281 L 254.84375 408.503906 L 250.316406 408.503906 L 244.898438 401.300781 L 244.46875 401.300781 L 244.46875 408.503906 Z M 240.191406 408.503906 " fill-opacity="0.302" fill-rule="nonzero"/><path fill="#0d356b" d="M 274.097656 404.4375 L 275.242188 407.613281 C 274.757812 407.996094 274.171875 408.289062 273.457031 408.503906 C 272.761719 408.71875 271.976562 408.824219 271.105469 408.824219 C 269.25 408.824219 267.832031 408.324219 266.859375 407.328125 C 265.90625 406.3125 265.433594 404.847656 265.433594 402.941406 L 265.433594 394.8125 L 262.832031 394.8125 L 262.832031 391.425781 L 265.433594 391.425781 L 265.433594 388.074219 L 269.714844 387.394531 L 269.714844 391.425781 L 274.5625 391.425781 L 274.5625 394.8125 L 269.714844 394.8125 L 269.714844 402.621094 C 269.714844 403.476562 269.890625 404.101562 270.25 404.476562 C 270.605469 404.859375 271.113281 405.046875 271.78125 405.046875 C 272.539062 405.046875 273.207031 404.847656 273.777344 404.4375 Z M 274.097656 404.4375 " fill-opacity="0.302" fill-rule="nonzero"/><path fill="#0d356b" d="M 285.503906 408.824219 C 283.839844 408.824219 282.378906 408.484375 281.121094 407.789062 C 279.855469 407.105469 278.875 406.105469 278.160156 404.796875 C 277.464844 403.46875 277.125 401.863281 277.125 399.980469 C 277.125 398.109375 277.464844 396.503906 278.160156 395.167969 C 278.875 393.839844 279.855469 392.832031 281.121094 392.136719 C 282.378906 391.453125 283.839844 391.105469 285.503906 391.105469 C 287.191406 391.105469 288.660156 391.453125 289.925781 392.136719 C 291.183594 392.832031 292.15625 393.839844 292.851562 395.167969 C 293.5625 396.503906 293.921875 398.109375 293.921875 399.980469 C 293.921875 401.863281 293.5625 403.46875 292.851562 404.796875 C 292.15625 406.105469 291.183594 407.105469 289.925781 407.789062 C 288.660156 408.484375 287.191406 408.824219 285.503906 408.824219 Z M 285.503906 405.1875 C 288.164062 405.1875 289.5 403.457031 289.5 399.980469 C 289.5 398.179688 289.152344 396.863281 288.464844 396.023438 C 287.796875 395.167969 286.808594 394.742188 285.503906 394.742188 C 282.867188 394.742188 281.546875 396.488281 281.546875 399.980469 C 281.546875 403.457031 282.867188 405.1875 285.503906 405.1875 Z M 285.503906 405.1875 " fill-opacity="0.302" fill-rule="nonzero"/><path fill="#0d356b" d="M 314.671875 404.4375 L 315.8125 407.613281 C 315.332031 407.996094 314.742188 408.289062 314.027344 408.503906 C 313.332031 408.71875 312.550781 408.824219 311.675781 408.824219 C 309.820312 408.824219 308.402344 408.324219 307.433594 407.328125 C 306.476562 406.3125 306.007812 404.847656 306.007812 402.941406 L 306.007812 394.8125 L 303.402344 394.8125 L 303.402344 391.425781 L 306.007812 391.425781 L 306.007812 388.074219 L 310.285156 387.394531 L 310.285156 391.425781 L 315.132812 391.425781 L 315.132812 394.8125 L 310.285156 394.8125 L 310.285156 402.621094 C 310.285156 403.476562 310.464844 404.101562 310.820312 404.476562 C 311.175781 404.859375 311.683594 405.046875 312.351562 405.046875 C 313.109375 405.046875 313.777344 404.847656 314.347656 404.4375 Z M 314.671875 404.4375 " fill-opacity="0.302" fill-rule="nonzero"/><path fill="#0d356b" d="M 318.625 408.503906 L 318.625 384.578125 L 322.902344 384.578125 L 322.902344 393.671875 L 323.222656 393.707031 C 323.796875 392.878906 324.492188 392.234375 325.328125 391.78125 C 326.15625 391.335938 327.15625 391.105469 328.324219 391.105469 C 332.078125 391.105469 333.957031 393.242188 333.957031 397.523438 L 333.957031 408.503906 L 329.679688 408.503906 L 329.679688 398.054688 C 329.679688 396.898438 329.4375 396.050781 328.964844 395.523438 C 328.511719 395.007812 327.796875 394.742188 326.824219 394.742188 C 325.613281 394.742188 324.652344 395.152344 323.9375 395.953125 C 323.242188 396.738281 322.902344 397.976562 322.902344 399.660156 L 322.902344 408.503906 Z M 318.625 408.503906 " fill-opacity="0.302" fill-rule="nonzero"/><path fill="#0d356b" d="M 353.023438 400.945312 L 342.039062 400.945312 C 342.183594 402.425781 342.609375 403.503906 343.324219 404.1875 C 344.035156 404.859375 345.015625 405.1875 346.28125 405.1875 C 347.253906 405.1875 348.039062 405.007812 348.636719 404.652344 C 349.25 404.277344 349.75 403.71875 350.132812 402.976562 L 350.453125 402.976562 L 353.308594 404.796875 C 352.753906 406.007812 351.917969 406.988281 350.773438 407.71875 C 349.652344 408.460938 348.15625 408.824219 346.28125 408.824219 C 344.519531 408.824219 343.003906 408.496094 341.71875 407.828125 C 340.433594 407.167969 339.4375 406.167969 338.722656 404.832031 C 338.027344 403.503906 337.691406 401.890625 337.691406 399.980469 C 337.691406 398.039062 338.054688 396.398438 338.792969 395.0625 C 339.527344 393.734375 340.515625 392.742188 341.753906 392.101562 C 343.011719 391.441406 344.410156 391.105469 345.960938 391.105469 C 348.386719 391.105469 350.242188 391.746094 351.523438 393.027344 C 352.808594 394.3125 353.449219 396.195312 353.449219 398.664062 C 353.449219 399.570312 353.414062 400.265625 353.34375 400.765625 Z M 349.347656 398.164062 C 349.296875 396.863281 348.992188 395.910156 348.421875 395.3125 C 347.871094 394.722656 347.050781 394.417969 345.960938 394.417969 C 343.796875 394.417969 342.519531 395.667969 342.148438 398.164062 Z M 349.347656 398.164062 " fill-opacity="0.302" fill-rule="nonzero"/><path fill="#0d356b" d="M 371.347656 408.503906 L 366.851562 408.503906 L 362.789062 391.425781 L 366.78125 391.425781 L 369.277344 402.976562 L 369.597656 402.976562 L 372.878906 391.425781 L 376.585938 391.425781 L 379.9375 402.976562 L 380.261719 402.976562 L 382.683594 391.425781 L 386.535156 391.425781 L 382.542969 408.503906 L 378.050781 408.503906 L 374.804688 396.878906 L 374.484375 396.878906 Z M 371.347656 408.503906 " fill-opacity="0.302" fill-rule="nonzero"/><path fill="#0d356b" d="M 397.054688 408.824219 C 395.386719 408.824219 393.925781 408.484375 392.667969 407.789062 C 391.402344 407.105469 390.421875 406.105469 389.707031 404.796875 C 389.011719 403.46875 388.675781 401.863281 388.675781 399.980469 C 388.675781 398.109375 389.011719 396.503906 389.707031 395.167969 C 390.421875 393.839844 391.402344 392.832031 392.667969 392.136719 C 393.925781 391.453125 395.386719 391.105469 397.054688 391.105469 C 398.738281 391.105469 400.210938 391.453125 401.476562 392.136719 C 402.730469 392.832031 403.703125 393.839844 404.398438 395.167969 C 405.113281 396.503906 405.46875 398.109375 405.46875 399.980469 C 405.46875 401.863281 405.113281 403.46875 404.398438 404.796875 C 403.703125 406.105469 402.730469 407.105469 401.476562 407.789062 C 400.210938 408.484375 398.738281 408.824219 397.054688 408.824219 Z M 397.054688 405.1875 C 399.710938 405.1875 401.046875 403.457031 401.046875 399.980469 C 401.046875 398.179688 400.699219 396.863281 400.011719 396.023438 C 399.34375 395.167969 398.355469 394.742188 397.054688 394.742188 C 394.414062 394.742188 393.09375 396.488281 393.09375 399.980469 C 393.09375 403.457031 394.414062 405.1875 397.054688 405.1875 Z M 397.054688 405.1875 " fill-opacity="0.302" fill-rule="nonzero"/><path fill="#0d356b" d="M 409.4375 408.503906 L 409.4375 391.425781 L 413.609375 391.425781 L 413.609375 393.957031 L 413.929688 394.027344 C 414.332031 393.082031 414.867188 392.386719 415.535156 391.960938 C 416.222656 391.511719 417.042969 391.28125 417.996094 391.28125 C 418.96875 391.28125 419.707031 391.453125 420.207031 391.78125 L 419.492188 395.488281 L 419.171875 395.523438 C 418.886719 395.410156 418.609375 395.328125 418.351562 395.273438 C 418.085938 395.230469 417.78125 395.203125 417.425781 395.203125 C 416.214844 395.203125 415.285156 395.632812 414.644531 396.488281 C 414.019531 397.324219 413.71875 398.664062 413.71875 400.515625 L 413.71875 408.503906 Z M 409.4375 408.503906 " fill-opacity="0.302" fill-rule="nonzero"/><path fill="#0d356b" d="M 427.457031 408.824219 C 425.90625 408.824219 424.730469 408.414062 423.929688 407.578125 C 423.117188 406.746094 422.714844 405.492188 422.714844 403.796875 L 422.714844 384.578125 L 426.996094 384.578125 L 426.996094 403.617188 C 426.996094 404.671875 427.429688 405.1875 428.3125 405.1875 C 428.546875 405.1875 428.8125 405.152344 429.097656 405.082031 L 429.3125 405.117188 L 429.703125 408.433594 C 429.464844 408.546875 429.144531 408.644531 428.742188 408.71875 C 428.359375 408.789062 427.929688 408.824219 427.457031 408.824219 Z M 427.457031 408.824219 " fill-opacity="0.302" fill-rule="nonzero"/><path fill="#0d356b" d="M 438.625 408.824219 C 437.269531 408.824219 436.066406 408.503906 435.023438 407.863281 C 433.96875 407.203125 433.148438 406.203125 432.5625 404.867188 C 431.992188 403.539062 431.707031 401.90625 431.707031 399.980469 C 431.707031 398.039062 432 396.398438 432.597656 395.0625 C 433.210938 393.734375 434.058594 392.742188 435.128906 392.101562 C 436.199219 391.441406 437.429688 391.105469 438.835938 391.105469 C 439.878906 391.105469 440.796875 391.300781 441.582031 391.675781 C 442.367188 392.03125 443.019531 392.59375 443.542969 393.351562 L 443.898438 393.277344 L 443.898438 384.578125 L 448.179688 384.578125 L 448.179688 408.503906 L 443.898438 408.503906 L 443.898438 406.292969 L 443.542969 406.222656 C 443.089844 407.03125 442.445312 407.675781 441.617188 408.148438 C 440.78125 408.59375 439.78125 408.824219 438.625 408.824219 Z M 440.011719 405.1875 C 441.199219 405.1875 442.136719 404.761719 442.832031 403.902344 C 443.542969 403.046875 443.898438 401.746094 443.898438 399.980469 C 443.898438 398.226562 443.542969 396.914062 442.832031 396.058594 C 442.136719 395.1875 441.199219 394.742188 440.011719 394.742188 C 438.746094 394.742188 437.785156 395.167969 437.125 396.023438 C 436.457031 396.863281 436.128906 398.179688 436.128906 399.980469 C 436.128906 401.765625 436.457031 403.085938 437.125 403.941406 C 437.785156 404.777344 438.746094 405.1875 440.011719 405.1875 Z M 440.011719 405.1875 " fill-opacity="0.302" fill-rule="nonzero"/><path fill="#0d356b" d="M 169.925781 407.425781 C 168.355469 407.425781 166.949219 407.226562 165.71875 406.851562 C 164.503906 406.480469 163.488281 405.980469 162.6875 405.355469 C 161.875 404.714844 161.261719 404.019531 160.832031 403.253906 L 163.292969 400.257812 L 163.648438 400.257812 C 164.335938 401.253906 165.199219 402.066406 166.253906 402.679688 C 167.296875 403.277344 168.515625 403.574219 169.925781 403.574219 C 171.136719 403.574219 172.039062 403.324219 172.636719 402.824219 C 173.25 402.308594 173.5625 401.601562 173.5625 400.71875 C 173.5625 400.175781 173.457031 399.722656 173.242188 399.367188 C 173.046875 399.007812 172.722656 398.707031 172.277344 398.4375 C 171.824219 398.179688 171.21875 397.957031 170.460938 397.761719 L 167.535156 397.121094 C 165.484375 396.648438 163.972656 395.871094 162.972656 394.800781 C 161.992188 393.714844 161.511719 392.304688 161.511719 390.59375 C 161.511719 389.308594 161.832031 388.1875 162.472656 387.207031 C 163.113281 386.234375 164.042969 385.488281 165.253906 384.960938 C 166.46875 384.417969 167.929688 384.140625 169.640625 384.140625 C 171.371094 384.140625 172.859375 384.382812 174.097656 384.851562 C 175.355469 385.308594 176.414062 386.011719 177.269531 386.957031 L 175.058594 389.988281 L 174.667969 389.988281 C 174.027344 389.328125 173.285156 388.828125 172.457031 388.492188 C 171.644531 388.132812 170.710938 387.957031 169.640625 387.957031 C 168.402344 387.957031 167.464844 388.1875 166.824219 388.632812 C 166.199219 389.0625 165.894531 389.65625 165.894531 390.414062 C 165.894531 391.128906 166.109375 391.699219 166.539062 392.128906 C 166.984375 392.554688 167.769531 392.894531 168.890625 393.125 L 171.851562 393.730469 C 174.0625 394.1875 175.648438 394.972656 176.628906 396.085938 C 177.628906 397.207031 178.125 398.652344 178.125 400.433594 C 178.125 401.84375 177.8125 403.066406 177.199219 404.109375 C 176.601562 405.160156 175.683594 405.980469 174.453125 406.566406 C 173.214844 407.136719 171.707031 407.425781 169.925781 407.425781 Z M 169.925781 407.425781 " fill-opacity="0.502" fill-rule="nonzero"/><path fill="#0d356b" d="M 181.800781 414.019531 L 181.800781 390.023438 L 186.078125 390.023438 L 186.078125 392.269531 L 186.402344 392.304688 C 186.917969 391.449219 187.59375 390.808594 188.433594 390.378906 C 189.289062 389.933594 190.289062 389.703125 191.429688 389.703125 C 192.78125 389.703125 193.96875 390.042969 194.992188 390.699219 C 196.035156 391.34375 196.847656 392.332031 197.417969 393.660156 C 197.988281 394.972656 198.273438 396.609375 198.273438 398.582031 C 198.273438 400.535156 197.960938 402.171875 197.347656 403.5 C 196.75 404.8125 195.921875 405.800781 194.851562 406.460938 C 193.78125 407.101562 192.542969 407.425781 191.144531 407.425781 C 190.074219 407.425781 189.144531 407.246094 188.363281 406.890625 C 187.59375 406.53125 186.945312 405.980469 186.402344 405.214844 L 186.078125 405.285156 L 186.078125 414.019531 Z M 189.929688 403.785156 C 191.214844 403.785156 192.1875 403.375 192.855469 402.539062 C 193.515625 401.710938 193.851562 400.390625 193.851562 398.582031 C 193.851562 396.78125 193.515625 395.460938 192.855469 394.625 C 192.1875 393.765625 191.214844 393.339844 189.929688 393.339844 C 188.734375 393.339844 187.792969 393.785156 187.078125 394.660156 C 186.382812 395.515625 186.042969 396.824219 186.042969 398.582031 C 186.042969 400.320312 186.382812 401.628906 187.078125 402.503906 C 187.792969 403.359375 188.734375 403.785156 189.929688 403.785156 Z M 189.929688 403.785156 " fill-opacity="0.502" fill-rule="nonzero"/><path fill="#0d356b" d="M 216.644531 399.542969 L 205.664062 399.542969 C 205.808594 401.023438 206.234375 402.101562 206.949219 402.789062 C 207.660156 403.457031 208.640625 403.785156 209.90625 403.785156 C 210.878906 403.785156 211.664062 403.609375 212.261719 403.253906 C 212.875 402.878906 213.375 402.316406 213.757812 401.578125 L 214.078125 401.578125 L 216.933594 403.394531 C 216.378906 404.605469 215.542969 405.585938 214.398438 406.320312 C 213.277344 407.058594 211.78125 407.425781 209.90625 407.425781 C 208.140625 407.425781 206.628906 407.09375 205.34375 406.425781 C 204.058594 405.765625 203.0625 404.765625 202.347656 403.429688 C 201.652344 402.101562 201.3125 400.488281 201.3125 398.582031 C 201.3125 396.636719 201.679688 394.996094 202.417969 393.660156 C 203.152344 392.332031 204.140625 391.34375 205.378906 390.699219 C 206.636719 390.042969 208.035156 389.703125 209.585938 389.703125 C 212.011719 389.703125 213.863281 390.34375 215.148438 391.628906 C 216.433594 392.910156 217.074219 394.792969 217.074219 397.261719 C 217.074219 398.171875 217.039062 398.867188 216.96875 399.367188 Z M 212.972656 396.761719 C 212.921875 395.460938 212.617188 394.507812 212.046875 393.910156 C 211.492188 393.320312 210.675781 393.019531 209.585938 393.019531 C 207.421875 393.019531 206.144531 394.265625 205.769531 396.761719 Z M 212.972656 396.761719 " fill-opacity="0.502" fill-rule="nonzero"/><path fill="#0d356b" d="M 225 407.425781 C 223.90625 407.425781 222.949219 407.21875 222.148438 406.816406 C 221.335938 406.417969 220.703125 405.835938 220.257812 405.070312 C 219.832031 404.285156 219.617188 403.351562 219.617188 402.253906 C 219.617188 401.238281 219.832031 400.382812 220.257812 399.6875 C 220.703125 399 221.382812 398.4375 222.292969 398.011719 C 223.191406 397.582031 224.378906 397.253906 225.855469 397.011719 C 226.875 396.851562 227.648438 396.671875 228.175781 396.476562 C 228.71875 396.261719 229.074219 396.039062 229.246094 395.800781 C 229.429688 395.542969 229.53125 395.21875 229.53125 394.835938 C 229.53125 394.292969 229.332031 393.875 228.960938 393.589844 C 228.574219 393.304688 227.941406 393.160156 227.070312 393.160156 C 226.117188 393.160156 225.214844 393.375 224.359375 393.804688 C 223.503906 394.214844 222.753906 394.765625 222.113281 395.480469 L 221.828125 395.480469 L 220.007812 392.769531 C 220.882812 391.796875 221.945312 391.046875 223.183594 390.523438 C 224.441406 389.980469 225.804688 389.703125 227.285156 389.703125 C 229.539062 389.703125 231.167969 390.191406 232.167969 391.164062 C 233.183594 392.117188 233.703125 393.472656 233.703125 395.230469 L 233.703125 402.644531 C 233.703125 403.414062 234.03125 403.785156 234.699219 403.785156 C 234.957031 403.785156 235.21875 403.742188 235.484375 403.644531 L 235.699219 403.714844 L 235.984375 406.710938 C 235.742188 406.851562 235.414062 406.976562 234.984375 407.066406 C 234.574219 407.15625 234.113281 407.210938 233.59375 407.210938 C 232.570312 407.210938 231.777344 407.023438 231.207031 406.640625 C 230.636719 406.238281 230.226562 405.625 229.992188 404.785156 L 229.671875 404.75 C 228.835938 406.53125 227.285156 407.425781 225 407.425781 Z M 226.355469 404.214844 C 227.355469 404.214844 228.140625 403.886719 228.710938 403.214844 C 229.296875 402.558594 229.601562 401.628906 229.601562 400.433594 L 229.601562 398.722656 L 229.316406 398.652344 C 229.046875 398.867188 228.710938 399.042969 228.28125 399.1875 C 227.871094 399.3125 227.285156 399.4375 226.5 399.578125 C 225.570312 399.75 224.902344 400.023438 224.503906 400.398438 C 224.09375 400.757812 223.894531 401.28125 223.894531 401.96875 C 223.894531 402.707031 224.109375 403.269531 224.539062 403.644531 C 224.964844 404.027344 225.570312 404.214844 226.355469 404.214844 Z M 226.355469 404.214844 " fill-opacity="0.502" fill-rule="nonzero"/><path fill="#0d356b" d="M 238.789062 407.101562 L 238.789062 383.175781 L 243.066406 383.175781 L 243.066406 396.441406 L 243.496094 396.441406 L 248.417969 390.023438 L 252.765625 390.023438 L 252.765625 390.378906 L 246.992188 397.867188 L 253.445312 406.710938 L 253.445312 407.101562 L 248.914062 407.101562 L 243.496094 399.902344 L 243.066406 399.902344 L 243.066406 407.101562 Z M 238.789062 407.101562 " fill-opacity="0.502" fill-rule="nonzero"/><path fill="#0d356b" d="M 272.699219 403.039062 L 273.839844 406.210938 C 273.359375 406.59375 272.769531 406.890625 272.054688 407.101562 C 271.359375 407.316406 270.578125 407.425781 269.703125 407.425781 C 267.847656 407.425781 266.433594 406.925781 265.460938 405.925781 C 264.507812 404.910156 264.035156 403.449219 264.035156 401.539062 L 264.035156 393.410156 L 261.429688 393.410156 L 261.429688 390.023438 L 264.035156 390.023438 L 264.035156 386.671875 L 268.3125 385.996094 L 268.3125 390.023438 L 273.160156 390.023438 L 273.160156 393.410156 L 268.3125 393.410156 L 268.3125 401.21875 C 268.3125 402.074219 268.492188 402.699219 268.847656 403.074219 C 269.203125 403.457031 269.710938 403.644531 270.378906 403.644531 C 271.136719 403.644531 271.808594 403.449219 272.378906 403.039062 Z M 272.699219 403.039062 " fill-opacity="0.502" fill-rule="nonzero"/><path fill="#0d356b" d="M 284.105469 407.425781 C 282.4375 407.425781 280.976562 407.085938 279.71875 406.390625 C 278.453125 405.703125 277.472656 404.707031 276.761719 403.394531 C 276.066406 402.066406 275.726562 400.460938 275.726562 398.582031 C 275.726562 396.710938 276.066406 395.105469 276.761719 393.765625 C 277.472656 392.4375 278.453125 391.433594 279.71875 390.738281 C 280.976562 390.050781 282.4375 389.703125 284.105469 389.703125 C 285.789062 389.703125 287.261719 390.050781 288.527344 390.738281 C 289.785156 391.433594 290.753906 392.4375 291.449219 393.765625 C 292.164062 395.105469 292.519531 396.710938 292.519531 398.582031 C 292.519531 400.460938 292.164062 402.066406 291.449219 403.394531 C 290.753906 404.707031 289.785156 405.703125 288.527344 406.390625 C 287.261719 407.085938 285.789062 407.425781 284.105469 407.425781 Z M 284.105469 403.785156 C 286.761719 403.785156 288.097656 402.058594 288.097656 398.582031 C 288.097656 396.78125 287.75 395.460938 287.0625 394.625 C 286.394531 393.765625 285.40625 393.339844 284.105469 393.339844 C 281.464844 393.339844 280.148438 395.085938 280.148438 398.582031 C 280.148438 402.058594 281.464844 403.785156 284.105469 403.785156 Z M 284.105469 403.785156 " fill-opacity="0.502" fill-rule="nonzero"/><path fill="#0d356b" d="M 313.269531 403.039062 L 314.410156 406.210938 C 313.929688 406.59375 313.339844 406.890625 312.628906 407.101562 C 311.933594 407.316406 311.148438 407.425781 310.273438 407.425781 C 308.421875 407.425781 307.003906 406.925781 306.03125 405.925781 C 305.078125 404.910156 304.605469 403.449219 304.605469 401.539062 L 304.605469 393.410156 L 302.003906 393.410156 L 302.003906 390.023438 L 304.605469 390.023438 L 304.605469 386.671875 L 308.882812 385.996094 L 308.882812 390.023438 L 313.734375 390.023438 L 313.734375 393.410156 L 308.882812 393.410156 L 308.882812 401.21875 C 308.882812 402.074219 309.0625 402.699219 309.417969 403.074219 C 309.773438 403.457031 310.285156 403.644531 310.953125 403.644531 C 311.710938 403.644531 312.378906 403.449219 312.949219 403.039062 Z M 313.269531 403.039062 " fill-opacity="0.502" fill-rule="nonzero"/><path fill="#0d356b" d="M 317.222656 407.101562 L 317.222656 383.175781 L 321.503906 383.175781 L 321.503906 392.269531 L 321.824219 392.304688 C 322.394531 391.476562 323.089844 390.835938 323.925781 390.378906 C 324.757812 389.933594 325.753906 389.703125 326.921875 389.703125 C 330.675781 389.703125 332.554688 391.84375 332.554688 396.121094 L 332.554688 407.101562 L 328.277344 407.101562 L 328.277344 396.65625 C 328.277344 395.496094 328.035156 394.648438 327.5625 394.125 C 327.109375 393.605469 326.398438 393.339844 325.425781 393.339844 C 324.210938 393.339844 323.25 393.75 322.535156 394.550781 C 321.839844 395.335938 321.503906 396.574219 321.503906 398.261719 L 321.503906 407.101562 Z M 317.222656 407.101562 " fill-opacity="0.502" fill-rule="nonzero"/><path fill="#0d356b" d="M 351.621094 399.542969 L 340.640625 399.542969 C 340.78125 401.023438 341.210938 402.101562 341.921875 402.789062 C 342.636719 403.457031 343.617188 403.785156 344.882812 403.785156 C 345.851562 403.785156 346.636719 403.609375 347.234375 403.253906 C 347.851562 402.878906 348.347656 402.316406 348.734375 401.578125 L 349.054688 401.578125 L 351.90625 403.394531 C 351.351562 404.605469 350.515625 405.585938 349.375 406.320312 C 348.25 407.058594 346.753906 407.425781 344.882812 407.425781 C 343.117188 407.425781 341.601562 407.09375 340.316406 406.425781 C 339.035156 405.765625 338.035156 404.765625 337.324219 403.429688 C 336.628906 402.101562 336.289062 400.488281 336.289062 398.582031 C 336.289062 396.636719 336.652344 394.996094 337.394531 393.660156 C 338.125 392.332031 339.113281 391.34375 340.351562 390.699219 C 341.609375 390.042969 343.011719 389.703125 344.5625 389.703125 C 346.984375 389.703125 348.839844 390.34375 350.125 391.628906 C 351.40625 392.910156 352.046875 394.792969 352.046875 397.261719 C 352.046875 398.171875 352.011719 398.867188 351.941406 399.367188 Z M 347.949219 396.761719 C 347.894531 395.460938 347.589844 394.507812 347.019531 393.910156 C 346.46875 393.320312 345.648438 393.019531 344.5625 393.019531 C 342.394531 393.019531 341.121094 394.265625 340.746094 396.761719 Z M 347.949219 396.761719 " fill-opacity="0.502" fill-rule="nonzero"/><path fill="#0d356b" d="M 369.945312 407.101562 L 365.453125 407.101562 L 361.386719 390.023438 L 365.382812 390.023438 L 367.878906 401.578125 L 368.199219 401.578125 L 371.476562 390.023438 L 375.1875 390.023438 L 378.539062 401.578125 L 378.859375 401.578125 L 381.285156 390.023438 L 385.136719 390.023438 L 381.140625 407.101562 L 376.648438 407.101562 L 373.402344 395.480469 L 373.082031 395.480469 Z M 369.945312 407.101562 " fill-opacity="0.502" fill-rule="nonzero"/><path fill="#0d356b" d="M 395.652344 407.425781 C 393.984375 407.425781 392.523438 407.085938 391.265625 406.390625 C 390 405.703125 389.019531 404.707031 388.308594 403.394531 C 387.613281 402.066406 387.273438 400.460938 387.273438 398.582031 C 387.273438 396.710938 387.613281 395.105469 388.308594 393.765625 C 389.019531 392.4375 390 391.433594 391.265625 390.738281 C 392.523438 390.050781 393.984375 389.703125 395.652344 389.703125 C 397.335938 389.703125 398.808594 390.050781 400.074219 390.738281 C 401.332031 391.433594 402.300781 392.4375 402.996094 393.765625 C 403.710938 395.105469 404.066406 396.710938 404.066406 398.582031 C 404.066406 400.460938 403.710938 402.066406 402.996094 403.394531 C 402.300781 404.707031 401.332031 405.703125 400.074219 406.390625 C 398.808594 407.085938 397.335938 407.425781 395.652344 407.425781 Z M 395.652344 403.785156 C 398.308594 403.785156 399.644531 402.058594 399.644531 398.582031 C 399.644531 396.78125 399.296875 395.460938 398.613281 394.625 C 397.945312 393.765625 396.953125 393.339844 395.652344 393.339844 C 393.015625 393.339844 391.695312 395.085938 391.695312 398.582031 C 391.695312 402.058594 393.015625 403.785156 395.652344 403.785156 Z M 395.652344 403.785156 " fill-opacity="0.502" fill-rule="nonzero"/><path fill="#0d356b" d="M 408.039062 407.101562 L 408.039062 390.023438 L 412.210938 390.023438 L 412.210938 392.554688 L 412.53125 392.625 C 412.929688 391.683594 413.464844 390.988281 414.132812 390.558594 C 414.820312 390.113281 415.640625 389.882812 416.59375 389.882812 C 417.566406 389.882812 418.304688 390.050781 418.804688 390.378906 L 418.09375 394.089844 L 417.773438 394.125 C 417.484375 394.007812 417.210938 393.929688 416.953125 393.875 C 416.683594 393.828125 416.382812 393.804688 416.023438 393.804688 C 414.8125 393.804688 413.886719 394.230469 413.242188 395.085938 C 412.621094 395.925781 412.316406 397.261719 412.316406 399.117188 L 412.316406 407.101562 Z M 408.039062 407.101562 " fill-opacity="0.502" fill-rule="nonzero"/><path fill="#0d356b" d="M 426.058594 407.425781 C 424.507812 407.425781 423.328125 407.015625 422.527344 406.175781 C 421.714844 405.347656 421.316406 404.089844 421.316406 402.394531 L 421.316406 383.175781 L 425.59375 383.175781 L 425.59375 402.21875 C 425.59375 403.269531 426.03125 403.785156 426.914062 403.785156 C 427.144531 403.785156 427.410156 403.75 427.699219 403.679688 L 427.910156 403.714844 L 428.304688 407.03125 C 428.0625 407.148438 427.742188 407.246094 427.339844 407.316406 C 426.957031 407.386719 426.53125 407.425781 426.058594 407.425781 Z M 426.058594 407.425781 " fill-opacity="0.502" fill-rule="nonzero"/><path fill="#0d356b" d="M 437.222656 407.425781 C 435.867188 407.425781 434.664062 407.101562 433.621094 406.460938 C 432.570312 405.800781 431.75 404.804688 431.160156 403.464844 C 430.589844 402.136719 430.304688 400.507812 430.304688 398.582031 C 430.304688 396.636719 430.597656 394.996094 431.195312 393.660156 C 431.8125 392.332031 432.660156 391.34375 433.726562 390.699219 C 434.796875 390.042969 436.027344 389.703125 437.4375 389.703125 C 438.480469 389.703125 439.398438 389.898438 440.183594 390.273438 C 440.964844 390.628906 441.617188 391.191406 442.144531 391.949219 L 442.5 391.878906 L 442.5 383.175781 L 446.777344 383.175781 L 446.777344 407.101562 L 442.5 407.101562 L 442.5 404.890625 L 442.144531 404.820312 C 441.6875 405.632812 441.046875 406.273438 440.21875 406.746094 C 439.378906 407.191406 438.382812 407.425781 437.222656 407.425781 Z M 438.613281 403.785156 C 439.796875 403.785156 440.734375 403.359375 441.429688 402.503906 C 442.144531 401.648438 442.5 400.347656 442.5 398.582031 C 442.5 396.824219 442.144531 395.515625 441.429688 394.660156 C 440.734375 393.785156 439.796875 393.339844 438.613281 393.339844 C 437.347656 393.339844 436.382812 393.765625 435.726562 394.625 C 435.054688 395.460938 434.726562 396.78125 434.726562 398.582031 C 434.726562 400.363281 435.054688 401.683594 435.726562 402.539062 C 436.382812 403.375 437.347656 403.785156 438.613281 403.785156 Z M 438.613281 403.785156 " fill-opacity="0.502" fill-rule="nonzero"/><path fill="#0d356b" d="M 168.523438 406.023438 C 166.957031 406.023438 165.546875 405.828125 164.316406 405.453125 C 163.105469 405.078125 162.089844 404.578125 161.285156 403.953125 C 160.476562 403.3125 159.859375 402.617188 159.433594 401.851562 L 161.890625 398.855469 L 162.25 398.855469 C 162.933594 399.855469 163.800781 400.664062 164.851562 401.28125 C 165.894531 401.878906 167.117188 402.171875 168.523438 402.171875 C 169.738281 402.171875 170.636719 401.921875 171.234375 401.421875 C 171.847656 400.90625 172.160156 400.203125 172.160156 399.320312 C 172.160156 398.777344 172.054688 398.320312 171.839844 397.964844 C 171.644531 397.609375 171.324219 397.304688 170.878906 397.039062 C 170.421875 396.777344 169.816406 396.554688 169.058594 396.359375 L 166.136719 395.71875 C 164.085938 395.246094 162.570312 394.46875 161.570312 393.402344 C 160.589844 392.3125 160.109375 390.90625 160.109375 389.191406 C 160.109375 387.910156 160.429688 386.785156 161.074219 385.804688 C 161.714844 384.835938 162.640625 384.085938 163.855469 383.558594 C 165.066406 383.015625 166.527344 382.738281 168.238281 382.738281 C 169.96875 382.738281 171.457031 382.980469 172.695312 383.453125 C 173.953125 383.90625 175.015625 384.613281 175.871094 385.554688 L 173.660156 388.585938 L 173.265625 388.585938 C 172.625 387.925781 171.886719 387.429688 171.054688 387.089844 C 170.246094 386.734375 169.308594 386.554688 168.238281 386.554688 C 167 386.554688 166.0625 386.785156 165.421875 387.230469 C 164.796875 387.660156 164.496094 388.257812 164.496094 389.015625 C 164.496094 389.726562 164.710938 390.296875 165.136719 390.726562 C 165.582031 391.152344 166.367188 391.492188 167.492188 391.726562 L 170.449219 392.332031 C 172.660156 392.785156 174.246094 393.570312 175.226562 394.683594 C 176.226562 395.808594 176.726562 397.25 176.726562 399.035156 C 176.726562 400.441406 176.414062 401.664062 175.796875 402.707031 C 175.203125 403.757812 174.28125 404.578125 173.054688 405.167969 C 171.8125 405.738281 170.308594 406.023438 168.523438 406.023438 Z M 168.523438 406.023438 " fill-opacity="1" fill-rule="nonzero"/><path fill="#0d356b" d="M 180.398438 412.621094 L 180.398438 388.621094 L 184.679688 388.621094 L 184.679688 390.867188 L 185 390.90625 C 185.515625 390.050781 186.195312 389.40625 187.03125 388.980469 C 187.886719 388.535156 188.886719 388.300781 190.027344 388.300781 C 191.382812 388.300781 192.566406 388.640625 193.59375 389.300781 C 194.636719 389.941406 195.445312 390.929688 196.015625 392.257812 C 196.589844 393.570312 196.875 395.210938 196.875 397.179688 C 196.875 399.132812 196.5625 400.773438 195.945312 402.101562 C 195.347656 403.410156 194.519531 404.402344 193.449219 405.058594 C 192.378906 405.703125 191.140625 406.023438 189.742188 406.023438 C 188.671875 406.023438 187.746094 405.84375 186.960938 405.488281 C 186.195312 405.132812 185.542969 404.578125 185 403.8125 L 184.679688 403.882812 L 184.679688 412.621094 Z M 188.53125 402.386719 C 189.8125 402.386719 190.785156 401.976562 191.453125 401.136719 C 192.113281 400.308594 192.453125 398.988281 192.453125 397.179688 C 192.453125 395.378906 192.113281 394.058594 191.453125 393.222656 C 190.785156 392.367188 189.8125 391.9375 188.53125 391.9375 C 187.335938 391.9375 186.390625 392.382812 185.675781 393.257812 C 184.980469 394.113281 184.644531 395.425781 184.644531 397.179688 C 184.644531 398.917969 184.980469 400.230469 185.675781 401.101562 C 186.390625 401.957031 187.335938 402.386719 188.53125 402.386719 Z M 188.53125 402.386719 " fill-opacity="1" fill-rule="nonzero"/><path fill="#0d356b" d="M 215.246094 398.144531 L 204.261719 398.144531 C 204.40625 399.621094 204.832031 400.703125 205.546875 401.386719 C 206.261719 402.054688 207.242188 402.386719 208.507812 402.386719 C 209.476562 402.386719 210.261719 402.207031 210.859375 401.851562 C 211.476562 401.476562 211.972656 400.914062 212.355469 400.175781 L 212.679688 400.175781 L 215.53125 401.992188 C 214.976562 403.207031 214.140625 404.1875 213 404.917969 C 211.875 405.65625 210.378906 406.023438 208.507812 406.023438 C 206.742188 406.023438 205.226562 405.691406 203.941406 405.023438 C 202.660156 404.363281 201.660156 403.367188 200.949219 402.03125 C 200.253906 400.703125 199.914062 399.085938 199.914062 397.179688 C 199.914062 395.238281 200.277344 393.597656 201.019531 392.257812 C 201.75 390.929688 202.738281 389.941406 203.976562 389.300781 C 205.234375 388.640625 206.632812 388.300781 208.1875 388.300781 C 210.609375 388.300781 212.464844 388.945312 213.746094 390.226562 C 215.03125 391.511719 215.671875 393.390625 215.671875 395.859375 C 215.671875 396.769531 215.636719 397.464844 215.566406 397.964844 Z M 211.574219 395.363281 C 211.519531 394.058594 211.214844 393.105469 210.644531 392.507812 C 210.09375 391.921875 209.273438 391.617188 208.1875 391.617188 C 206.019531 391.617188 204.746094 392.867188 204.371094 395.363281 Z M 211.574219 395.363281 " fill-opacity="1" fill-rule="nonzero"/><path fill="#0d356b" d="M 223.601562 406.023438 C 222.503906 406.023438 221.550781 405.816406 220.746094 405.417969 C 219.9375 405.015625 219.304688 404.4375 218.859375 403.667969 C 218.429688 402.886719 218.214844 401.949219 218.214844 400.851562 C 218.214844 399.835938 218.429688 398.980469 218.859375 398.285156 C 219.304688 397.597656 219.980469 397.039062 220.890625 396.609375 C 221.789062 396.183594 222.976562 395.851562 224.457031 395.609375 C 225.472656 395.449219 226.246094 395.273438 226.773438 395.078125 C 227.316406 394.863281 227.675781 394.640625 227.84375 394.398438 C 228.03125 394.140625 228.128906 393.820312 228.128906 393.4375 C 228.128906 392.890625 227.933594 392.472656 227.558594 392.1875 C 227.175781 391.902344 226.542969 391.761719 225.667969 391.761719 C 224.714844 391.761719 223.8125 391.972656 222.957031 392.402344 C 222.101562 392.8125 221.355469 393.363281 220.710938 394.078125 L 220.425781 394.078125 L 218.609375 391.367188 C 219.480469 390.398438 220.542969 389.648438 221.78125 389.121094 C 223.039062 388.578125 224.402344 388.300781 225.882812 388.300781 C 228.136719 388.300781 229.769531 388.792969 230.765625 389.765625 C 231.785156 390.71875 232.300781 392.074219 232.300781 393.828125 L 232.300781 401.246094 C 232.300781 402.011719 232.628906 402.386719 233.300781 402.386719 C 233.558594 402.386719 233.816406 402.339844 234.082031 402.242188 L 234.296875 402.316406 L 234.582031 405.308594 C 234.34375 405.453125 234.011719 405.578125 233.585938 405.667969 C 233.175781 405.753906 232.710938 405.808594 232.195312 405.808594 C 231.167969 405.808594 230.375 405.621094 229.804688 405.238281 C 229.234375 404.835938 228.824219 404.222656 228.59375 403.382812 L 228.269531 403.347656 C 227.433594 405.132812 225.882812 406.023438 223.601562 406.023438 Z M 224.957031 402.8125 C 225.953125 402.8125 226.738281 402.484375 227.308594 401.816406 C 227.898438 401.15625 228.199219 400.230469 228.199219 399.035156 L 228.199219 397.324219 L 227.914062 397.25 C 227.648438 397.464844 227.308594 397.644531 226.878906 397.785156 C 226.472656 397.910156 225.882812 398.035156 225.097656 398.179688 C 224.171875 398.347656 223.503906 398.625 223.101562 399 C 222.691406 399.355469 222.496094 399.882812 222.496094 400.566406 C 222.496094 401.308594 222.710938 401.867188 223.136719 402.242188 C 223.566406 402.625 224.171875 402.8125 224.957031 402.8125 Z M 224.957031 402.8125 " fill-opacity="1" fill-rule="nonzero"/><path fill="#0d356b" d="M 237.386719 405.703125 L 237.386719 381.777344 L 241.667969 381.777344 L 241.667969 395.039062 L 242.09375 395.039062 L 247.015625 388.621094 L 251.367188 388.621094 L 251.367188 388.980469 L 245.589844 396.46875 L 252.042969 405.308594 L 252.042969 405.703125 L 247.515625 405.703125 L 242.09375 398.5 L 241.667969 398.5 L 241.667969 405.703125 Z M 237.386719 405.703125 " fill-opacity="1" fill-rule="nonzero"/><path fill="#0d356b" d="M 271.296875 401.636719 L 272.4375 404.8125 C 271.957031 405.195312 271.367188 405.488281 270.65625 405.703125 C 269.960938 405.914062 269.175781 406.023438 268.300781 406.023438 C 266.449219 406.023438 265.03125 405.523438 264.058594 404.523438 C 263.105469 403.507812 262.632812 402.046875 262.632812 400.140625 L 262.632812 392.011719 L 260.03125 392.011719 L 260.03125 388.621094 L 262.632812 388.621094 L 262.632812 385.269531 L 266.910156 384.59375 L 266.910156 388.621094 L 271.761719 388.621094 L 271.761719 392.011719 L 266.910156 392.011719 L 266.910156 399.820312 C 266.910156 400.675781 267.089844 401.296875 267.445312 401.671875 C 267.804688 402.054688 268.3125 402.242188 268.980469 402.242188 C 269.738281 402.242188 270.40625 402.046875 270.976562 401.636719 Z M 271.296875 401.636719 " fill-opacity="1" fill-rule="nonzero"/><path fill="#0d356b" d="M 282.703125 406.023438 C 281.039062 406.023438 279.574219 405.683594 278.320312 404.988281 C 277.050781 404.300781 276.070312 403.304688 275.359375 401.992188 C 274.664062 400.664062 274.324219 399.0625 274.324219 397.179688 C 274.324219 395.308594 274.664062 393.703125 275.359375 392.367188 C 276.070312 391.039062 277.050781 390.03125 278.320312 389.335938 C 279.574219 388.648438 281.039062 388.300781 282.703125 388.300781 C 284.390625 388.300781 285.859375 388.648438 287.125 389.335938 C 288.382812 390.03125 289.355469 391.039062 290.050781 392.367188 C 290.761719 393.703125 291.117188 395.308594 291.117188 397.179688 C 291.117188 399.0625 290.761719 400.664062 290.050781 401.992188 C 289.355469 403.304688 288.382812 404.300781 287.125 404.988281 C 285.859375 405.683594 284.390625 406.023438 282.703125 406.023438 Z M 282.703125 402.386719 C 285.359375 402.386719 286.699219 400.65625 286.699219 397.179688 C 286.699219 395.378906 286.351562 394.058594 285.664062 393.222656 C 284.996094 392.367188 284.003906 391.9375 282.703125 391.9375 C 280.066406 391.9375 278.746094 393.6875 278.746094 397.179688 C 278.746094 400.65625 280.066406 402.386719 282.703125 402.386719 Z M 282.703125 402.386719 " fill-opacity="1" fill-rule="nonzero"/><path fill="#0d356b" d="M 311.867188 401.636719 L 313.011719 404.8125 C 312.527344 405.195312 311.941406 405.488281 311.226562 405.703125 C 310.53125 405.914062 309.746094 406.023438 308.875 406.023438 C 307.019531 406.023438 305.601562 405.523438 304.628906 404.523438 C 303.675781 403.507812 303.203125 402.046875 303.203125 400.140625 L 303.203125 392.011719 L 300.601562 392.011719 L 300.601562 388.621094 L 303.203125 388.621094 L 303.203125 385.269531 L 307.484375 384.59375 L 307.484375 388.621094 L 312.332031 388.621094 L 312.332031 392.011719 L 307.484375 392.011719 L 307.484375 399.820312 C 307.484375 400.675781 307.660156 401.296875 308.019531 401.671875 C 308.375 402.054688 308.882812 402.242188 309.550781 402.242188 C 310.308594 402.242188 310.976562 402.046875 311.546875 401.636719 Z M 311.867188 401.636719 " fill-opacity="1" fill-rule="nonzero"/><path fill="#0d356b" d="M 315.824219 405.703125 L 315.824219 381.777344 L 320.101562 381.777344 L 320.101562 390.867188 L 320.421875 390.90625 C 320.992188 390.074219 321.6875 389.433594 322.527344 388.980469 C 323.355469 388.535156 324.355469 388.300781 325.523438 388.300781 C 329.273438 388.300781 331.15625 390.441406 331.15625 394.71875 L 331.15625 405.703125 L 326.875 405.703125 L 326.875 395.253906 C 326.875 394.097656 326.636719 393.25 326.164062 392.722656 C 325.707031 392.207031 324.996094 391.9375 324.023438 391.9375 C 322.8125 391.9375 321.847656 392.347656 321.136719 393.152344 C 320.441406 393.933594 320.101562 395.175781 320.101562 396.859375 L 320.101562 405.703125 Z M 315.824219 405.703125 " fill-opacity="1" fill-rule="nonzero"/><path fill="#0d356b" d="M 350.21875 398.144531 L 339.238281 398.144531 C 339.378906 399.621094 339.808594 400.703125 340.519531 401.386719 C 341.234375 402.054688 342.214844 402.386719 343.480469 402.386719 C 344.453125 402.386719 345.238281 402.207031 345.835938 401.851562 C 346.449219 401.476562 346.949219 400.914062 347.332031 400.175781 L 347.652344 400.175781 L 350.503906 401.992188 C 349.953125 403.207031 349.113281 404.1875 347.972656 404.917969 C 346.851562 405.65625 345.351562 406.023438 343.480469 406.023438 C 341.714844 406.023438 340.199219 405.691406 338.917969 405.023438 C 337.632812 404.363281 336.636719 403.367188 335.921875 402.03125 C 335.226562 400.703125 334.886719 399.085938 334.886719 397.179688 C 334.886719 395.238281 335.253906 393.597656 335.992188 392.257812 C 336.722656 390.929688 337.714844 389.941406 338.953125 389.300781 C 340.210938 388.640625 341.609375 388.300781 343.160156 388.300781 C 345.585938 388.300781 347.4375 388.945312 348.722656 390.226562 C 350.007812 391.511719 350.648438 393.390625 350.648438 395.859375 C 350.648438 396.769531 350.613281 397.464844 350.539062 397.964844 Z M 346.546875 395.363281 C 346.492188 394.058594 346.191406 393.105469 345.621094 392.507812 C 345.066406 391.921875 344.246094 391.617188 343.160156 391.617188 C 340.992188 391.617188 339.71875 392.867188 339.34375 395.363281 Z M 346.546875 395.363281 " fill-opacity="1" fill-rule="nonzero"/><path fill="#0d356b" d="M 368.542969 405.703125 L 364.050781 405.703125 L 359.988281 388.621094 L 363.980469 388.621094 L 366.476562 400.175781 L 366.796875 400.175781 L 370.078125 388.621094 L 373.785156 388.621094 L 377.136719 400.175781 L 377.457031 400.175781 L 379.882812 388.621094 L 383.734375 388.621094 L 379.742188 405.703125 L 375.246094 405.703125 L 372.003906 394.078125 L 371.683594 394.078125 Z M 368.542969 405.703125 " fill-opacity="1" fill-rule="nonzero"/><path fill="#0d356b" d="M 394.25 406.023438 C 392.585938 406.023438 391.121094 405.683594 389.867188 404.988281 C 388.601562 404.300781 387.621094 403.304688 386.90625 401.992188 C 386.210938 400.664062 385.871094 399.0625 385.871094 397.179688 C 385.871094 395.308594 386.210938 393.703125 386.90625 392.367188 C 387.621094 391.039062 388.601562 390.03125 389.867188 389.335938 C 391.121094 388.648438 392.585938 388.300781 394.25 388.300781 C 395.9375 388.300781 397.40625 388.648438 398.671875 389.335938 C 399.929688 390.03125 400.902344 391.039062 401.597656 392.367188 C 402.308594 393.703125 402.667969 395.308594 402.667969 397.179688 C 402.667969 399.0625 402.308594 400.664062 401.597656 401.992188 C 400.902344 403.304688 399.929688 404.300781 398.671875 404.988281 C 397.40625 405.683594 395.9375 406.023438 394.25 406.023438 Z M 394.25 402.386719 C 396.90625 402.386719 398.246094 400.65625 398.246094 397.179688 C 398.246094 395.378906 397.898438 394.058594 397.210938 393.222656 C 396.542969 392.367188 395.554688 391.9375 394.25 391.9375 C 391.613281 391.9375 390.292969 393.6875 390.292969 397.179688 C 390.292969 400.65625 391.613281 402.386719 394.25 402.386719 Z M 394.25 402.386719 " fill-opacity="1" fill-rule="nonzero"/><path fill="#0d356b" d="M 406.636719 405.703125 L 406.636719 388.621094 L 410.808594 388.621094 L 410.808594 391.152344 L 411.128906 391.226562 C 411.53125 390.28125 412.066406 389.585938 412.734375 389.15625 C 413.421875 388.710938 414.238281 388.480469 415.195312 388.480469 C 416.164062 388.480469 416.90625 388.648438 417.40625 388.980469 L 416.691406 392.6875 L 416.371094 392.722656 C 416.085938 392.605469 415.808594 392.527344 415.550781 392.472656 C 415.28125 392.429688 414.980469 392.402344 414.625 392.402344 C 413.410156 392.402344 412.484375 392.832031 411.84375 393.6875 C 411.21875 394.523438 410.914062 395.859375 410.914062 397.714844 L 410.914062 405.703125 Z M 406.636719 405.703125 " fill-opacity="1" fill-rule="nonzero"/><path fill="#0d356b" d="M 424.65625 406.023438 C 423.105469 406.023438 421.929688 405.613281 421.125 404.773438 C 420.316406 403.945312 419.914062 402.6875 419.914062 400.996094 L 419.914062 381.777344 L 424.191406 381.777344 L 424.191406 400.816406 C 424.191406 401.867188 424.628906 402.386719 425.511719 402.386719 C 425.742188 402.386719 426.011719 402.351562 426.296875 402.277344 L 426.511719 402.316406 L 426.902344 405.628906 C 426.660156 405.746094 426.339844 405.84375 425.941406 405.914062 C 425.554688 405.988281 425.128906 406.023438 424.65625 406.023438 Z M 424.65625 406.023438 " fill-opacity="1" fill-rule="nonzero"/><path fill="#0d356b" d="M 435.820312 406.023438 C 434.464844 406.023438 433.261719 405.703125 432.21875 405.058594 C 431.167969 404.402344 430.347656 403.402344 429.761719 402.066406 C 429.1875 400.738281 428.902344 399.105469 428.902344 397.179688 C 428.902344 395.238281 429.199219 393.597656 429.796875 392.257812 C 430.410156 390.929688 431.257812 389.941406 432.328125 389.300781 C 433.398438 388.640625 434.625 388.300781 436.035156 388.300781 C 437.078125 388.300781 437.996094 388.496094 438.78125 388.871094 C 439.566406 389.230469 440.214844 389.789062 440.742188 390.546875 L 441.097656 390.476562 L 441.097656 381.777344 L 445.378906 381.777344 L 445.378906 405.703125 L 441.097656 405.703125 L 441.097656 403.492188 L 440.742188 403.421875 C 440.289062 404.230469 439.644531 404.871094 438.816406 405.34375 C 437.980469 405.792969 436.980469 406.023438 435.820312 406.023438 Z M 437.210938 402.386719 C 438.398438 402.386719 439.332031 401.957031 440.027344 401.101562 C 440.742188 400.246094 441.097656 398.945312 441.097656 397.179688 C 441.097656 395.425781 440.742188 394.113281 440.027344 393.257812 C 439.332031 392.382812 438.398438 391.9375 437.210938 391.9375 C 435.945312 391.9375 434.984375 392.367188 434.324219 393.222656 C 433.65625 394.058594 433.324219 395.378906 433.324219 397.179688 C 433.324219 398.964844 433.65625 400.28125 434.324219 401.136719 C 434.984375 401.976562 435.945312 402.386719 437.210938 402.386719 Z M 437.210938 402.386719 " fill-opacity="1" fill-rule="nonzero"/></svg>