<svg xmlns="http://www.w3.org/2000/svg" xmlns:xlink="http://www.w3.org/1999/xlink" width="1000" zoomAndPan="magnify" viewBox="0 0 750 172.499995" height="230" preserveAspectRatio="xMidYMid meet" version="1.2"><defs><clipPath id="c47c65bd7e"><path d="M 22.011719 0 L 727.964844 0 L 727.964844 172 L 22.011719 172 Z M 22.011719 0 "/></clipPath></defs><g id="176df3ecef"><g clip-rule="nonzero" clip-path="url(#c47c65bd7e)"><path style=" stroke:none;fill-rule:nonzero;fill:#b8283b;fill-opacity:1;" d="M 727.519531 73.015625 C 722.324219 70.34375 716.835938 69.898438 711.195312 71.382812 C 710.75 71.53125 710.304688 71.53125 709.859375 71.679688 C 710.304688 66.335938 706.742188 64.703125 701.992188 64.703125 C 697.691406 64.703125 693.535156 65.59375 689.527344 66.929688 C 692.496094 65 696.355469 64.109375 696.652344 59.804688 C 696.503906 59.65625 696.503906 59.65625 696.355469 59.507812 C 696.355469 59.507812 696.503906 59.507812 696.503906 59.507812 C 696.503906 59.507812 696.503906 59.359375 696.503906 59.359375 C 697.691406 59.359375 698.878906 59.359375 700.066406 59.359375 C 704.070312 58.320312 704.21875 58.320312 702.882812 55.800781 C 702.289062 54.613281 701.101562 53.425781 700.214844 52.386719 C 698.730469 51.792969 697.839844 52.238281 697.246094 53.128906 C 696.355469 52.386719 695.464844 51.644531 694.425781 51.199219 C 694.425781 51.199219 694.277344 51.199219 694.277344 51.199219 C 689.230469 50.308594 684.777344 52.980469 679.882812 52.832031 C 679.585938 52.832031 679.4375 52.683594 679.140625 52.683594 C 679.734375 51.496094 679.734375 50.308594 679.4375 48.972656 C 679.289062 48.675781 678.992188 48.230469 679.140625 48.230469 C 679.140625 48.230469 679.289062 48.230469 679.289062 48.230469 C 680.179688 48.824219 681.070312 49.417969 681.21875 49.269531 C 681.960938 48.527344 682.851562 48.082031 683.742188 47.785156 C 684.777344 47.785156 685.964844 47.636719 686.855469 47.339844 C 689.082031 47.191406 691.160156 47.042969 692.941406 45.707031 C 693.089844 45.261719 693.238281 44.816406 693.386719 44.371094 C 692.496094 39.921875 690.417969 37.546875 685.519531 40.367188 C 685.519531 40.367188 686.113281 39.773438 686.113281 39.773438 C 686.261719 39.328125 686.261719 38.734375 686.261719 38.140625 C 687.300781 37.84375 688.933594 37.84375 689.378906 36.804688 C 692.792969 38.4375 696.058594 37.25 699.324219 35.914062 C 700.214844 35.617188 700.660156 35.171875 700.660156 34.28125 C 700.511719 33.6875 700.214844 33.09375 699.917969 32.648438 C 702.4375 33.242188 704.8125 33.242188 707.039062 30.71875 C 707.039062 26.710938 707.039062 26.710938 700.066406 27.75 C 699.472656 27.898438 698.878906 27.898438 698.285156 28.046875 C 697.394531 29.382812 696.058594 29.679688 694.574219 29.679688 C 694.425781 28.046875 693.832031 26.710938 691.753906 27.75 C 690.714844 28.195312 689.972656 29.085938 689.082031 29.679688 C 688.933594 29.53125 688.636719 29.382812 688.488281 29.234375 C 687.894531 29.085938 687.152344 28.9375 686.410156 28.9375 C 686.261719 28.789062 686.261719 28.789062 686.113281 28.640625 C 685.519531 28.195312 685.074219 28.492188 684.925781 29.085938 C 683.296875 29.382812 681.8125 29.679688 680.328125 30.421875 C 680.625 29.679688 680.773438 28.9375 679.882812 28.34375 C 678.398438 27.601562 677.210938 28.34375 676.617188 29.828125 C 676.46875 30.125 676.46875 30.570312 676.320312 31.015625 C 676.171875 31.164062 676.023438 31.164062 675.875 31.3125 C 675.578125 31.164062 675.28125 31.164062 675.132812 31.164062 C 675.132812 30.867188 675.132812 30.421875 674.984375 30.125 C 674.539062 28.640625 674.09375 27.304688 672.90625 26.117188 C 668.304688 23.003906 666.972656 26.5625 665.339844 29.382812 C 664.597656 28.789062 663.558594 28.640625 662.519531 28.789062 C 660.738281 29.53125 659.550781 31.015625 658.214844 32.351562 C 657.175781 32.945312 656.878906 32.351562 656.730469 30.421875 C 656.582031 28.9375 656.136719 28.34375 654.949219 28.046875 C 654.949219 27.898438 654.949219 27.898438 654.949219 27.898438 C 651.09375 26.265625 655.839844 22.558594 653.019531 20.777344 C 647.53125 18.847656 642.78125 19.292969 639.664062 24.191406 C 638.328125 17.808594 632.246094 21.519531 628.089844 20.925781 C 625.714844 21.519531 624.527344 23.003906 623.785156 24.929688 C 622.003906 23.152344 619.332031 23.746094 617.109375 23.152344 C 616.960938 23.152344 616.960938 23.152344 616.8125 23.152344 C 616.515625 22.558594 616.367188 21.964844 616.070312 21.519531 C 617.703125 20.183594 618 18.996094 615.921875 17.808594 C 614.585938 18.105469 613.398438 18.550781 612.359375 19.292969 C 611.765625 19.292969 611.171875 19.441406 610.429688 19.441406 C 610.429688 19.589844 610.429688 19.886719 610.429688 20.035156 C 609.984375 19.886719 609.6875 19.738281 609.242188 19.589844 C 607.757812 18.847656 606.125 18.402344 604.492188 18.402344 C 603.601562 18.402344 602.859375 18.550781 602.117188 18.996094 C 601.820312 19.292969 601.378906 19.292969 601.082031 19.589844 C 599.894531 19.589844 598.855469 19.589844 597.667969 19.589844 C 593.808594 19.292969 593.957031 16.621094 593.808594 14.097656 C 594.699219 12.761719 595.738281 11.574219 597.371094 11.128906 C 597.667969 12.019531 598.410156 12.464844 599.449219 12.613281 C 601.378906 12.613281 603.15625 12.464844 605.085938 12.464844 C 605.234375 12.167969 605.382812 12.019531 605.53125 11.722656 C 605.53125 11.722656 605.53125 11.722656 605.53125 11.574219 C 605.382812 11.871094 605.085938 12.316406 604.640625 12.910156 C 606.125 14.246094 607.757812 14.394531 609.6875 14.097656 C 610.578125 13.800781 611.320312 13.355469 612.0625 12.910156 C 612.804688 12.316406 613.546875 11.722656 614.289062 11.277344 C 615.328125 11.128906 616.367188 11.128906 617.40625 10.980469 C 618.441406 12.167969 619.925781 12.761719 621.410156 12.316406 C 625.269531 11.128906 629.722656 11.574219 633.136719 8.457031 C 634.617188 7.125 635.507812 9.050781 636.101562 10.535156 C 636.546875 11.277344 637.289062 11.722656 638.179688 11.722656 C 641.148438 11.574219 642.78125 9.496094 644.859375 7.867188 C 649.015625 4.601562 646.789062 2.820312 643.078125 1.484375 C 642.335938 1.335938 641.445312 1.039062 640.703125 1.039062 C 640.257812 1.039062 639.960938 1.039062 639.515625 1.039062 C 636.695312 1.1875 634.175781 0.296875 631.503906 0.148438 C 627.941406 0.148438 624.378906 0.445312 620.816406 1.039062 C 619.480469 1.632812 618.144531 1.632812 616.8125 1.1875 C 613.84375 1.1875 610.578125 0 608.203125 2.96875 C 608.203125 2.96875 608.203125 3.117188 608.203125 3.117188 C 607.90625 2.523438 607.757812 1.929688 607.164062 1.632812 C 606.570312 1.335938 605.976562 1.1875 605.382812 1.335938 C 604.492188 1.484375 603.601562 1.484375 602.710938 1.335938 C 602.117188 1.335938 601.523438 1.335938 600.933594 1.484375 C 600.042969 1.929688 599.152344 1.335938 598.261719 1.335938 C 597.519531 1.335938 596.925781 1.484375 596.183594 1.632812 C 595.144531 2.078125 594.105469 2.671875 593.511719 3.710938 C 593.066406 3.117188 592.472656 2.523438 591.582031 2.226562 C 586.683594 0.890625 581.789062 1.1875 576.890625 1.929688 C 570.804688 3.710938 564.425781 2.523438 558.339844 3.414062 C 557.449219 3.5625 556.558594 3.710938 555.816406 4.007812 C 554.332031 4.601562 553.144531 5.492188 552.699219 6.976562 C 551.660156 5.195312 549.882812 4.304688 547.507812 4.304688 C 546.765625 4.304688 546.023438 4.304688 545.28125 4.453125 C 543.945312 4.75 542.460938 4.898438 541.125 5.046875 C 540.382812 5.34375 539.9375 5.640625 539.492188 6.234375 C 537.5625 7.570312 535.1875 6.828125 533.113281 7.125 C 532.667969 7.273438 532.222656 7.421875 531.777344 7.570312 C 531.035156 7.570312 530.441406 7.421875 529.699219 7.421875 C 528.511719 7.421875 527.324219 7.570312 526.136719 7.570312 C 524.355469 7.71875 522.425781 7.71875 520.644531 7.867188 C 519.457031 7.867188 518.273438 7.71875 517.085938 7.71875 C 516.492188 7.71875 515.898438 7.570312 515.15625 7.570312 C 514.5625 7.71875 513.96875 7.570312 513.375 7.570312 C 512.78125 7.71875 512.039062 7.867188 511.445312 8.015625 C 509.515625 8.164062 508.476562 9.496094 507.4375 10.832031 C 506.992188 10.980469 506.695312 10.980469 506.398438 11.128906 C 506.992188 10.238281 507.140625 9.347656 506.992188 8.457031 C 506.695312 7.71875 506.101562 7.273438 505.359375 6.976562 C 503.875 6.679688 502.390625 6.828125 500.910156 6.679688 C 500.167969 6.679688 499.425781 6.679688 498.683594 6.679688 C 497.199219 6.828125 495.714844 6.976562 494.230469 7.125 C 493.488281 7.125 492.746094 7.125 492.003906 7.273438 C 490.074219 7.273438 487.996094 7.273438 486.066406 7.125 C 485.324219 7.125 484.4375 7.125 483.695312 7.125 C 482.507812 7.125 481.171875 7.125 479.984375 7.125 C 477.164062 7.125 474.34375 7.125 471.523438 7.273438 C 470.78125 7.273438 469.890625 7.273438 469.148438 7.421875 C 468.410156 7.421875 467.667969 7.570312 466.925781 7.71875 C 466.183594 7.867188 465.589844 8.015625 464.847656 8.164062 C 463.957031 8.457031 462.917969 8.605469 462.027344 8.457031 C 461.433594 8.308594 460.691406 8.308594 460.097656 8.457031 C 459.503906 8.605469 458.910156 9.050781 458.464844 9.496094 C 458.464844 9.496094 458.464844 9.644531 458.464844 9.644531 C 452.082031 12.019531 445.40625 7.125 439.023438 9.941406 C 436.5 10.535156 433.683594 9.496094 431.308594 11.277344 C 429.972656 11.871094 429.378906 13.503906 428.042969 14.246094 C 427.300781 14.246094 426.707031 14.246094 425.964844 14.246094 C 425.667969 12.167969 424.183594 11.722656 422.402344 11.425781 C 421.066406 12.910156 420.175781 14.542969 417.359375 14.097656 C 414.242188 13.503906 410.828125 14.246094 407.710938 13.355469 C 406.820312 13.058594 406.078125 13.800781 405.484375 14.542969 C 405.484375 14.691406 405.335938 14.691406 405.335938 14.839844 C 398.066406 8.457031 389.902344 11.722656 382.039062 13.207031 C 372.835938 13.355469 363.785156 15.136719 354.582031 15.136719 C 352.355469 17.660156 351.023438 13.949219 349.09375 14.394531 C 346.125 15.136719 343.304688 15.730469 340.335938 16.324219 C 339.445312 14.394531 337.960938 14.097656 335.882812 14.542969 C 327.574219 16.621094 319.261719 14.542969 310.804688 15.730469 C 304.421875 16.621094 297.746094 15.582031 291.214844 15.582031 C 281.867188 15.582031 272.515625 17.214844 263.316406 15.136719 C 261.832031 16.917969 259.605469 16.621094 257.527344 16.769531 C 255.746094 16.917969 253.964844 16.917969 252.1875 17.066406 C 251.59375 16.917969 251 16.769531 250.40625 16.769531 C 240.757812 16.769531 231.113281 17.066406 221.464844 16.769531 C 210.929688 16.621094 200.542969 17.957031 190.003906 16.917969 C 189.855469 16.917969 189.707031 16.917969 189.410156 16.917969 C 190.300781 12.019531 185.554688 12.910156 183.03125 12.910156 C 175.609375 12.613281 168.191406 11.871094 160.621094 12.613281 C 152.609375 11.871094 144.742188 12.019531 136.875 11.722656 C 124.707031 10.980469 112.390625 11.128906 100.222656 9.050781 C 99.332031 7.71875 98.441406 6.382812 96.660156 6.234375 C 93.988281 6.382812 92.355469 7.71875 91.761719 10.238281 C 91.167969 10.832031 93.394531 11.425781 91.761719 12.019531 C 91.316406 11.722656 90.871094 11.574219 90.425781 11.425781 C 89.980469 10.535156 89.535156 9.792969 89.089844 8.902344 C 87.902344 8.308594 86.71875 7.71875 85.382812 7.125 C 84.789062 7.421875 84.492188 7.867188 84.492188 8.605469 C 84.492188 9.199219 84.492188 9.792969 84.492188 10.386719 C 84.492188 10.386719 84.640625 10.535156 84.640625 10.683594 C 84.195312 10.683594 83.898438 10.683594 83.453125 10.683594 C 83.453125 11.128906 83.453125 11.425781 83.453125 11.871094 C 83.304688 11.871094 83.15625 11.871094 83.15625 12.019531 C 83.007812 12.019531 83.007812 11.871094 82.859375 11.871094 C 82.414062 11.722656 81.96875 11.871094 81.523438 12.316406 C 80.929688 12.316406 80.335938 12.316406 79.742188 12.316406 C 79.742188 12.613281 79.742188 12.910156 79.742188 13.207031 C 79.742188 13.207031 79.59375 13.207031 79.59375 13.207031 C 79.445312 13.207031 79.296875 13.355469 79 13.355469 C 78.703125 12.761719 78.257812 12.167969 77.664062 11.722656 C 73.804688 13.355469 73.210938 5.640625 68.761719 8.902344 C 68.761719 9.199219 68.761719 9.496094 68.761719 9.792969 C 69.058594 10.683594 69.058594 11.722656 68.613281 12.167969 C 67.722656 12.910156 67.277344 11.871094 66.832031 11.277344 C 66.089844 10.386719 65.496094 9.496094 64.457031 7.867188 C 61.933594 12.761719 58.816406 15.730469 53.03125 14.691406 C 51.84375 14.394531 49.914062 15.285156 48.875 16.175781 C 46.351562 18.699219 42.9375 18.699219 39.820312 19.441406 C 39.226562 20.777344 38.78125 21.964844 38.1875 23.300781 C 38.039062 23.746094 37.890625 24.191406 37.890625 24.636719 C 36.855469 24.636719 36.113281 25.078125 35.816406 26.117188 C 33.886719 26.265625 32.402344 27.304688 31.363281 28.789062 C 29.582031 31.164062 27.503906 33.09375 24.683594 34.28125 C 23.792969 34.726562 22.457031 35.320312 23.050781 36.804688 C 25.128906 38.734375 28.097656 37.84375 30.621094 38.734375 C 33.292969 40.960938 36.707031 40.664062 39.820312 40.664062 C 43.085938 40.8125 43.679688 42.738281 43.53125 45.261719 C 44.273438 47.339844 45.015625 49.417969 46.945312 50.753906 C 49.46875 52.535156 47.6875 54.019531 46.945312 55.800781 C 45.609375 57.136719 44.125 58.46875 42.789062 59.804688 C 41.453125 61.140625 42.195312 62.179688 43.234375 63.21875 C 43.828125 64.257812 44.273438 65.445312 44.867188 66.484375 C 43.382812 67.078125 42.046875 67.820312 41.898438 69.453125 C 41.601562 71.828125 39.523438 72.570312 37.890625 73.757812 C 37.296875 73.609375 36.558594 73.609375 35.964844 73.460938 C 32.550781 75.980469 32.550781 75.980469 35.964844 77.316406 C 36.113281 77.464844 36.410156 77.910156 36.558594 77.910156 C 37.003906 77.761719 37.445312 77.464844 37.890625 77.316406 C 39.078125 77.167969 40.265625 77.167969 41.453125 77.019531 C 40.265625 79.691406 37.890625 81.472656 35.816406 83.253906 C 33.441406 85.332031 33.441406 87.558594 35.371094 89.933594 C 36.113281 89.933594 36.707031 89.636719 37.296875 89.191406 C 38.039062 89.191406 38.78125 89.191406 39.671875 89.339844 C 41.304688 89.488281 42.34375 90.082031 42.640625 91.859375 C 43.085938 94.234375 43.234375 96.3125 41.304688 98.09375 C 40.265625 98.242188 39.671875 98.6875 39.375 99.726562 C 38.335938 99.875 37.890625 100.46875 37.59375 101.359375 C 35.816406 101.359375 34.035156 101.507812 32.253906 101.507812 C 31.214844 101.65625 30.027344 101.804688 28.988281 101.953125 C 30.621094 104.476562 32.253906 107 35.816406 107 C 36.558594 108.480469 38.1875 108.480469 39.375 108.925781 C 37.148438 110.707031 35.371094 112.636719 35.816406 115.605469 C 33.886719 116.644531 32.699219 118.722656 30.324219 119.167969 C 28.988281 118.277344 27.503906 119.019531 25.871094 119.316406 C 26.464844 120.207031 27.058594 121.097656 27.800781 122.136719 C 28.097656 122.878906 28.691406 123.324219 29.433594 123.621094 C 29.878906 123.621094 30.324219 123.621094 30.769531 123.621094 C 30.769531 123.769531 30.917969 123.917969 30.917969 124.066406 C 32.105469 126.4375 33.589844 128.515625 36.261719 129.554688 C 37.59375 129.851562 38.929688 130.148438 40.265625 130.445312 C 42.34375 132.078125 43.828125 134.007812 43.976562 136.976562 C 42.492188 138.90625 41.304688 140.835938 42.046875 143.207031 C 43.679688 143.355469 45.164062 143.652344 46.796875 143.800781 C 46.945312 144.097656 47.09375 144.394531 47.390625 144.542969 C 48.578125 145.582031 49.914062 146.472656 51.25 147.214844 C 53.179688 148.402344 55.253906 149.441406 57.332031 150.183594 C 56.886719 151.667969 57.628906 153.152344 58.519531 154.636719 C 59.410156 155.675781 60.449219 156.566406 61.636719 157.011719 C 66.089844 158.34375 71.875 157.011719 74.25 162.5 C 74.695312 163.242188 75.140625 163.835938 75.585938 164.429688 C 76.179688 165.46875 76.921875 166.359375 77.515625 167.25 C 79.296875 169.625 81.96875 172 84.9375 171.257812 C 88.050781 170.367188 87.308594 167.398438 86.863281 164.726562 C 86.570312 163.09375 89.832031 163.242188 89.832031 161.164062 C 91.464844 162.796875 93.542969 163.539062 95.917969 163.6875 C 95.769531 164.132812 95.769531 164.578125 96.066406 164.578125 C 101.707031 165.914062 105.5625 170.960938 111.203125 172 C 114.617188 170.515625 116.546875 167.992188 117.4375 164.578125 C 119.664062 166.507812 122.332031 166.359375 125.152344 165.320312 C 125.894531 164.875 126.339844 164.429688 126.636719 163.835938 C 128.863281 163.242188 128.863281 163.390625 129.605469 165.765625 C 131.386719 166.804688 132.574219 165.765625 133.761719 164.726562 C 134.800781 163.539062 135.542969 162.203125 135.839844 160.570312 C 135.839844 159.828125 135.691406 159.085938 135.246094 158.34375 C 135.246094 158.34375 135.097656 158.34375 135.097656 158.34375 C 135.246094 158.195312 135.246094 158.046875 135.246094 157.898438 C 135.394531 157.898438 135.394531 157.898438 135.542969 157.898438 C 136.726562 157.457031 137.765625 157.011719 138.804688 156.269531 C 139.84375 155.675781 140.882812 155.230469 141.921875 154.636719 C 152.460938 148.402344 163.144531 146.472656 174.867188 152.113281 C 178.578125 153.894531 182.585938 153.746094 185.109375 149.738281 C 186 148.402344 186.589844 146.917969 186.886719 145.285156 C 186.886719 145.285156 186.886719 145.285156 186.886719 145.136719 C 187.035156 145.136719 187.035156 145.136719 187.183594 145.136719 C 196.386719 151.074219 206.179688 147.214844 215.828125 146.027344 C 215.976562 145.730469 215.976562 145.433594 215.976562 145.285156 C 217.757812 147.066406 220.277344 147.214844 222.652344 147.363281 C 224.285156 147.511719 225.917969 147.511719 227.699219 147.511719 C 225.917969 148.105469 224.136719 148.699219 222.800781 150.332031 C 222.800781 150.925781 222.800781 151.371094 222.800781 151.964844 C 225.175781 152.261719 224.878906 156.269531 228.144531 155.082031 C 228.292969 154.488281 228.441406 153.894531 228.738281 153.449219 C 230.816406 151.371094 235.566406 152.558594 236.007812 148.402344 C 236.453125 148.699219 237.046875 148.847656 237.195312 149.292969 C 237.492188 150.183594 237.789062 150.925781 238.53125 151.519531 C 238.53125 151.667969 238.53125 151.816406 238.679688 151.964844 C 239.570312 153.003906 240.757812 153.449219 242.09375 153.449219 C 242.984375 153.449219 243.875 153.300781 244.617188 153.152344 C 245.507812 152.855469 246.25 152.558594 247.140625 151.964844 C 247.585938 151.964844 248.03125 152.113281 248.328125 152.113281 C 248.773438 152.855469 249.21875 153.597656 249.664062 154.339844 C 251.890625 157.308594 252.484375 157.308594 254.410156 154.339844 C 254.855469 153.597656 255.300781 152.855469 255.746094 152.113281 C 256.933594 151.964844 258.121094 151.667969 259.308594 151.519531 C 261.089844 151.667969 263.019531 151.667969 264.800781 151.816406 C 265.691406 151.816406 266.730469 151.816406 267.621094 151.816406 C 267.917969 151.964844 268.066406 152.113281 268.363281 152.261719 C 268.957031 152.261719 269.398438 152.261719 269.84375 151.964844 C 270.140625 152.261719 270.289062 152.410156 270.4375 152.707031 C 274.445312 154.785156 278.898438 154.191406 283.203125 154.191406 C 283.203125 154.191406 283.351562 154.191406 283.351562 154.191406 C 283.203125 154.488281 283.054688 154.785156 282.90625 155.082031 C 282.757812 155.527344 282.757812 156.417969 282.90625 156.566406 C 284.242188 157.308594 285.722656 157.160156 287.058594 156.566406 C 287.949219 156.121094 288.097656 155.230469 287.800781 154.339844 C 287.652344 153.894531 287.503906 153.449219 287.355469 153.152344 C 287.652344 153.003906 287.949219 152.855469 288.246094 152.707031 C 288.542969 152.410156 288.691406 152.113281 288.691406 151.816406 C 288.988281 152.113281 289.285156 152.261719 289.730469 152.113281 C 290.324219 154.785156 290.472656 157.601562 294.480469 157.75 C 297.746094 155.972656 301.753906 154.785156 302.9375 150.628906 C 302.9375 150.628906 303.085938 150.628906 303.085938 150.777344 C 303.382812 150.777344 303.679688 150.777344 303.976562 150.777344 C 305.460938 150.777344 304.421875 152.558594 305.460938 152.707031 C 308.429688 154.042969 311.25 154.339844 313.625 151.667969 C 314.515625 150.480469 315.851562 150.332031 317.039062 150.183594 C 317.039062 150.183594 317.039062 150.183594 317.039062 150.332031 C 317.484375 150.925781 318.078125 151.371094 318.820312 151.667969 C 323.863281 153.152344 328.910156 153.894531 334.105469 152.707031 C 334.253906 152.707031 334.253906 152.558594 334.402344 152.558594 C 335.441406 154.191406 337.664062 154.933594 339.148438 156.121094 C 340.335938 156.566406 341.523438 156.714844 342.710938 156.417969 C 346.273438 155.230469 349.390625 152.707031 353.542969 153.597656 C 354.582031 153.894531 355.621094 154.339844 356.660156 154.785156 C 357.699219 155.230469 358.738281 155.675781 359.777344 155.972656 C 360.964844 156.121094 362.003906 155.824219 363.042969 155.230469 C 363.636719 154.785156 364.230469 154.339844 364.824219 153.746094 C 364.824219 153.449219 364.824219 153.003906 364.824219 152.707031 C 364.972656 152.707031 365.121094 152.855469 365.417969 152.855469 C 379.515625 152.113281 393.613281 154.042969 407.710938 151.667969 C 413.203125 149.292969 419.285156 151.222656 424.628906 149.292969 C 424.925781 149.144531 425.222656 148.847656 425.519531 148.550781 C 427.300781 149.738281 428.933594 151.222656 428.933594 153.597656 C 427.746094 153.597656 426.558594 153.597656 425.371094 153.597656 C 424.183594 153.152344 422.847656 153.003906 421.660156 153.597656 C 419.730469 154.191406 420.027344 155.824219 419.730469 157.160156 C 417.953125 158.046875 416.171875 158.9375 414.390625 159.976562 C 412.757812 161.015625 412.164062 162.5 414.09375 163.984375 C 417.359375 165.914062 420.769531 166.953125 424.480469 165.171875 C 425.074219 164.726562 425.667969 164.132812 425.964844 163.390625 C 425.964844 162.945312 425.964844 162.648438 425.964844 162.203125 C 425.964844 162.203125 425.964844 162.203125 425.964844 162.054688 C 426.707031 161.757812 427.300781 161.460938 428.042969 161.164062 C 429.527344 161.164062 431.011719 161.015625 432.644531 161.015625 C 432.644531 161.609375 432.792969 162.054688 432.941406 162.648438 C 433.535156 162.054688 434.128906 161.460938 434.722656 160.867188 C 434.722656 160.71875 434.722656 160.421875 434.722656 160.273438 C 435.460938 160.125 436.203125 160.125 436.945312 159.976562 C 437.390625 159.976562 437.6875 159.976562 438.132812 159.976562 C 437.6875 161.460938 438.28125 162.945312 439.320312 164.28125 C 439.914062 164.726562 440.507812 165.023438 441.25 165.171875 C 442.140625 165.171875 443.179688 165.023438 443.328125 166.359375 C 443.328125 166.65625 443.476562 166.953125 443.476562 167.25 C 443.773438 167.398438 443.921875 167.695312 444.21875 167.84375 C 445.40625 169.03125 446.445312 169.03125 447.632812 167.84375 C 448.226562 167.398438 448.820312 166.953125 449.5625 166.507812 C 450.898438 167.101562 452.378906 166.804688 453.714844 167.101562 C 454.457031 167.25 455.050781 167.398438 455.792969 167.398438 C 456.832031 167.25 457.871094 167.101562 458.613281 166.210938 C 459.652344 165.617188 460.542969 164.875 461.285156 163.984375 C 461.285156 164.429688 461.433594 165.023438 461.582031 165.46875 C 461.878906 165.765625 462.027344 165.914062 462.324219 166.210938 C 466.480469 164.875 470.78125 164.578125 475.085938 164.578125 C 476.570312 164.578125 477.90625 163.984375 478.945312 162.945312 C 480.875 162.648438 482.507812 163.390625 484.140625 164.132812 C 486.066406 164.875 487.847656 164.578125 489.183594 163.242188 C 489.183594 163.242188 489.332031 163.242188 489.332031 163.242188 C 490.074219 163.539062 490.816406 163.539062 491.558594 163.539062 C 491.707031 163.539062 491.855469 163.539062 492.003906 163.390625 C 492.746094 164.726562 493.785156 165.617188 495.417969 163.835938 C 496.457031 162.648438 498.238281 162.796875 499.425781 162.054688 C 499.871094 162.054688 500.316406 162.054688 500.761719 162.054688 C 501.5 162.054688 502.09375 161.90625 502.835938 161.757812 C 503.578125 162.054688 504.171875 162.351562 504.914062 162.203125 C 509.960938 161.3125 515.007812 161.015625 519.902344 159.828125 C 523.910156 158.789062 527.917969 158.34375 531.925781 157.753906 C 531.925781 157.898438 532.222656 157.898438 532.667969 157.898438 C 533.113281 157.898438 533.558594 157.753906 534.003906 157.308594 L 534.003906 156.566406 C 534.148438 156.417969 534.445312 156.417969 534.59375 156.417969 C 535.039062 156.121094 535.484375 155.824219 535.929688 155.675781 C 538.75 155.527344 541.71875 155.527344 544.539062 155.378906 C 545.726562 154.933594 547.0625 154.339844 548.25 153.894531 C 548.398438 154.042969 548.546875 154.191406 548.84375 154.339844 C 549.734375 155.972656 550.769531 156.566406 553.292969 155.675781 C 554.332031 155.378906 555.074219 155.082031 555.816406 154.933594 C 556.410156 154.933594 557.003906 154.785156 557.597656 154.488281 C 559.972656 154.191406 560.863281 155.378906 563.238281 159.085938 C 563.832031 159.976562 564.277344 161.164062 566.355469 161.164062 C 566.949219 158.34375 567.539062 155.230469 569.617188 152.707031 C 570.507812 151.667969 571.25 151.519531 572.4375 152.707031 C 574.367188 154.785156 574.515625 154.636719 575.851562 152.410156 C 578.226562 148.550781 578.226562 148.550781 582.234375 151.074219 C 582.679688 151.371094 583.273438 151.816406 583.71875 151.964844 C 585.199219 152.261719 585.941406 151.964844 585.050781 150.183594 C 584.753906 149.589844 584.902344 149.144531 585.199219 148.847656 C 585.792969 148.699219 586.535156 148.550781 587.128906 148.402344 C 589.058594 147.808594 590.839844 147.214844 592.769531 146.769531 C 595.441406 146.175781 598.261719 145.878906 600.78125 144.988281 C 603.453125 144.097656 606.570312 144.097656 609.09375 143.058594 C 609.390625 142.910156 609.539062 142.761719 609.835938 142.464844 C 615.328125 145.433594 620.222656 140.390625 625.566406 140.6875 C 626.457031 140.539062 627.347656 140.390625 628.089844 140.09375 C 629.722656 139.5 631.207031 138.757812 632.542969 137.867188 C 632.839844 137.570312 633.136719 137.273438 633.433594 136.976562 C 635.210938 137.71875 636.695312 136.828125 637.882812 135.34375 C 639.664062 136.828125 641.742188 136.976562 643.96875 136.679688 C 645.007812 136.679688 645.898438 136.382812 646.789062 135.9375 C 649.90625 137.570312 652.574219 137.71875 654.652344 133.710938 C 654.652344 133.710938 654.652344 133.859375 654.652344 133.859375 C 655.394531 134.304688 656.136719 134.75 657.027344 134.898438 C 667.859375 133.859375 678.101562 131.484375 687.894531 126.734375 C 688.042969 126.4375 688.042969 126.140625 688.191406 125.84375 C 690.566406 125.992188 692.496094 124.511719 694.871094 124.363281 C 696.949219 120.800781 695.613281 118.574219 693.238281 116.792969 C 693.980469 116.941406 694.722656 117.089844 695.316406 116.792969 C 695.613281 116.792969 695.761719 116.644531 696.058594 116.644531 C 696.355469 116.792969 696.503906 117.089844 696.800781 117.386719 C 698.730469 119.910156 701.101562 118.277344 703.179688 117.832031 C 704.367188 117.535156 704.21875 115.902344 704.21875 114.566406 C 704.664062 114.863281 705.109375 115.011719 705.703125 115.160156 C 709.5625 115.457031 713.125 114.863281 716.535156 113.082031 C 717.128906 112.488281 717.574219 111.894531 717.574219 111.003906 C 716.390625 106.40625 714.90625 101.804688 715.648438 97.054688 C 715.648438 97.054688 715.5 96.90625 715.5 96.90625 C 716.832031 97.648438 718.019531 97.5 719.355469 96.757812 C 722.472656 87.707031 714.460938 91.121094 710.75 89.785156 C 709.859375 89.636719 708.96875 89.488281 708.078125 89.488281 C 707.1875 89.488281 706.296875 89.488281 705.40625 89.488281 C 704.070312 89.488281 702.734375 89.191406 701.398438 89.191406 C 700.0625 89.488281 698.730469 89.636719 697.691406 90.527344 C 697.691406 90.527344 697.542969 90.527344 697.542969 90.527344 C 696.652344 90.527344 695.613281 90.527344 694.722656 90.527344 C 694.128906 90.527344 693.535156 90.527344 692.941406 90.527344 C 694.128906 90.230469 695.316406 89.933594 696.503906 89.933594 C 699.175781 89.488281 701.101562 88.003906 702.4375 85.925781 C 702.734375 86.816406 703.328125 87.558594 704.070312 88.300781 C 709.5625 88.449219 714.609375 87.855469 718.167969 83.253906 C 718.761719 81.027344 718.167969 79.839844 716.980469 78.949219 C 721.136719 78.355469 726.332031 79.394531 727.519531 73.015625 Z M 601.523438 8.605469 C 601.523438 8.753906 601.523438 8.753906 601.523438 8.902344 C 601.523438 8.902344 601.375 8.902344 601.375 8.902344 C 601.375 8.902344 601.375 8.902344 601.226562 8.902344 C 601.378906 8.753906 601.523438 8.605469 601.523438 8.605469 Z M 58.222656 61.4375 C 58.222656 61.4375 58.222656 61.289062 58.222656 61.4375 C 58.371094 61.289062 58.371094 61.289062 58.519531 61.289062 C 58.371094 61.4375 58.222656 61.4375 58.222656 61.4375 Z M 58.222656 61.289062 C 58.222656 61.289062 58.074219 61.289062 58.222656 61.289062 C 58.371094 61.140625 58.667969 60.992188 58.964844 60.992188 C 58.667969 61.140625 58.371094 61.140625 58.222656 61.289062 Z M 59.855469 61.289062 C 59.855469 61.289062 60.003906 61.289062 59.855469 61.289062 C 60.003906 61.4375 59.855469 61.289062 59.855469 61.289062 Z M 123.519531 20.925781 C 123.667969 20.925781 123.667969 20.777344 123.816406 20.777344 C 123.816406 20.777344 123.816406 20.925781 123.964844 20.925781 C 123.816406 20.925781 123.667969 20.925781 123.519531 20.925781 Z M 135.097656 146.621094 Z M 153.347656 54.464844 C 153.347656 54.464844 153.347656 54.316406 153.347656 54.464844 C 153.347656 54.316406 153.347656 54.316406 153.347656 54.464844 C 153.347656 54.316406 153.347656 54.316406 153.347656 54.464844 Z M 195.050781 43.480469 C 194.902344 43.480469 194.902344 43.480469 195.050781 43.480469 C 194.902344 43.332031 195.050781 43.332031 195.050781 43.332031 C 195.050781 43.332031 195.050781 43.332031 195.050781 43.480469 Z M 200.542969 33.835938 C 200.691406 33.539062 200.839844 33.242188 200.839844 32.945312 C 200.839844 32.945312 200.691406 32.945312 200.691406 32.945312 C 200.691406 32.945312 200.691406 32.796875 200.691406 32.796875 C 200.691406 32.796875 200.839844 32.796875 200.839844 32.945312 C 200.988281 33.242188 201.136719 33.539062 201.433594 33.6875 C 201.136719 33.835938 200.839844 33.835938 200.542969 33.835938 Z M 204.546875 38.882812 Z M 206.179688 55.949219 C 206.328125 55.949219 206.328125 55.949219 206.179688 55.949219 C 206.328125 55.949219 206.328125 55.949219 206.179688 55.949219 C 206.328125 55.949219 206.328125 55.949219 206.179688 55.949219 C 206.328125 56.097656 206.328125 56.097656 206.179688 55.949219 C 206.328125 56.097656 206.179688 56.097656 206.179688 55.949219 Z M 206.328125 57.878906 Z M 213.453125 52.386719 C 213.601562 52.238281 213.601562 52.089844 213.75 51.941406 C 213.898438 52.089844 214.046875 52.238281 214.195312 52.386719 C 213.898438 52.386719 213.75 52.386719 213.453125 52.386719 Z M 215.828125 143.800781 C 215.976562 143.800781 215.976562 143.800781 215.828125 143.800781 C 215.976562 143.800781 215.976562 143.800781 215.828125 143.800781 C 215.976562 143.800781 215.976562 143.800781 215.828125 143.800781 Z M 219.390625 61.140625 Z M 220.722656 60.992188 C 221.019531 60.84375 221.316406 60.695312 221.613281 60.546875 C 221.761719 60.695312 222.058594 60.992188 222.207031 61.140625 C 221.613281 61.140625 221.167969 60.992188 220.722656 60.992188 Z M 246.695312 26.859375 Z M 252.335938 65.148438 C 252.335938 65.148438 252.335938 65 252.335938 65.148438 C 252.335938 65 252.335938 65 252.335938 65.148438 C 252.335938 65 252.335938 65.148438 252.335938 65.148438 Z M 262.871094 70.046875 C 262.722656 70.046875 262.574219 69.898438 262.425781 69.898438 C 262.574219 69.898438 262.722656 69.898438 262.871094 69.898438 C 262.871094 69.898438 262.871094 70.046875 262.871094 70.046875 Z M 262.871094 69.898438 Z M 263.464844 43.925781 C 263.167969 43.628906 263.167969 43.332031 263.613281 43.183594 C 263.761719 43.183594 264.058594 43.332031 264.207031 43.332031 C 263.910156 43.480469 263.613281 43.628906 263.464844 43.925781 Z M 279.492188 19.292969 C 279.492188 19.441406 279.492188 19.441406 279.492188 19.292969 Z M 280.976562 43.925781 C 279.789062 43.925781 278.75 43.925781 277.5625 43.925781 C 277.414062 43.777344 277.414062 43.777344 277.265625 43.628906 C 279.34375 43.480469 281.421875 43.480469 283.5 43.480469 C 282.757812 43.480469 281.867188 43.777344 280.976562 43.925781 Z M 286.761719 65.148438 C 286.761719 65.148438 286.910156 64.851562 286.910156 64.851562 C 286.910156 64.851562 287.058594 64.851562 287.058594 64.851562 C 286.910156 64.851562 286.761719 65 286.761719 65.148438 Z M 290.027344 75.683594 C 290.027344 75.535156 290.175781 75.386719 290.175781 75.238281 C 290.324219 75.238281 290.472656 75.238281 290.472656 75.238281 C 290.324219 75.535156 290.175781 75.535156 290.027344 75.683594 Z M 292.996094 44.222656 C 292.253906 43.628906 291.511719 43.332031 290.621094 43.035156 C 291.660156 42.886719 292.699219 42.738281 293.738281 42.589844 C 293.441406 43.183594 293.292969 43.628906 292.996094 44.222656 Z M 314.8125 34.578125 C 314.960938 34.578125 314.960938 34.429688 314.8125 34.578125 C 314.664062 34.132812 314.515625 33.835938 314.367188 33.539062 C 314.515625 33.6875 314.664062 33.984375 314.8125 34.132812 C 314.960938 34.28125 315.109375 34.28125 315.257812 34.429688 C 315.109375 34.429688 314.960938 34.578125 314.8125 34.578125 Z M 315.851562 57.730469 Z M 339.445312 69.007812 C 339.445312 69.453125 339.59375 69.75 339.742188 70.195312 C 339.445312 69.75 339.148438 69.453125 338.851562 69.007812 C 339.148438 69.007812 339.59375 68.859375 339.890625 68.265625 C 339.742188 68.414062 339.59375 68.710938 339.445312 69.007812 Z M 347.015625 29.679688 C 347.015625 29.679688 347.164062 29.828125 347.164062 29.828125 C 347.015625 29.828125 347.015625 29.828125 346.867188 29.828125 C 346.867188 29.828125 346.867188 29.828125 347.015625 29.679688 Z M 347.164062 132.96875 C 347.164062 133.117188 347.015625 133.117188 347.015625 133.265625 C 347.015625 133.117188 347.015625 133.117188 346.867188 132.96875 C 347.015625 132.96875 347.164062 132.96875 347.164062 132.96875 Z M 361.261719 86.074219 C 361.261719 86.074219 361.261719 85.925781 361.261719 85.925781 C 361.261719 85.777344 361.261719 85.628906 361.261719 85.628906 C 361.261719 85.628906 361.410156 85.628906 361.410156 85.628906 C 361.410156 85.628906 361.410156 85.777344 361.410156 86.074219 C 361.410156 85.925781 361.261719 85.925781 361.261719 86.074219 Z M 374.617188 40.8125 C 374.023438 40.8125 373.429688 40.664062 372.835938 40.8125 C 372.539062 40.8125 372.09375 40.960938 371.796875 41.109375 C 371.054688 40.664062 370.164062 40.367188 369.273438 40.21875 C 369.125 39.773438 368.980469 39.179688 368.980469 38.734375 C 370.015625 38.289062 371.054688 37.84375 372.09375 37.25 C 372.6875 37.25 373.28125 37.101562 373.726562 37.101562 C 374.023438 37.101562 374.171875 36.953125 374.46875 36.953125 C 374.914062 36.953125 375.210938 37.25 375.65625 37.398438 C 375.65625 38.289062 375.953125 38.882812 376.546875 39.476562 C 375.953125 39.625 375.359375 40.21875 374.617188 40.8125 Z M 383.820312 28.195312 C 383.671875 28.195312 383.671875 28.34375 383.671875 28.34375 C 383.523438 28.195312 383.523438 28.195312 383.375 28.046875 C 383.523438 28.046875 383.671875 28.195312 383.820312 28.195312 Z M 429.527344 66.484375 C 429.378906 66.484375 429.230469 66.632812 429.230469 66.632812 C 429.378906 66.484375 429.527344 66.484375 429.527344 66.335938 C 429.527344 66.335938 429.527344 66.335938 429.527344 66.484375 Z M 429.527344 155.675781 C 429.527344 155.527344 429.527344 155.527344 429.527344 155.378906 C 429.527344 155.527344 429.675781 155.527344 429.675781 155.675781 C 429.675781 155.675781 429.527344 155.675781 429.527344 155.675781 Z M 436.648438 23.003906 Z M 443.921875 86.074219 C 443.921875 86.074219 444.070312 86.074219 444.070312 86.074219 C 444.070312 86.074219 444.070312 86.074219 443.921875 86.074219 Z M 444.21875 108.480469 C 444.21875 108.183594 444.070312 107.886719 444.070312 107.59375 C 444.21875 107.742188 444.367188 108.035156 444.367188 108.480469 C 444.367188 108.480469 444.21875 108.480469 444.21875 108.480469 Z M 449.414062 65.148438 C 449.414062 65.148438 449.414062 65 449.414062 65 C 449.414062 65 449.5625 65 449.5625 65 C 449.5625 65 449.5625 65.148438 449.414062 65.148438 Z M 454.753906 66.484375 C 454.902344 66.335938 454.902344 66.1875 455.050781 66.039062 C 455.199219 66.039062 455.199219 66.1875 455.347656 66.1875 C 455.199219 66.335938 454.902344 66.484375 454.753906 66.484375 Z M 462.769531 155.972656 C 462.917969 155.824219 462.917969 155.972656 462.917969 155.972656 C 462.917969 155.972656 462.769531 155.972656 462.769531 155.972656 Z M 464.402344 23.300781 C 464.402344 23.152344 464.402344 23.152344 464.402344 23.300781 C 464.550781 23.152344 464.402344 23.300781 464.402344 23.300781 Z M 482.65625 20.777344 C 482.507812 20.777344 482.210938 20.628906 482.0625 20.628906 C 482.210938 20.183594 482.507812 20.035156 482.65625 20.035156 C 482.65625 20.183594 482.65625 20.480469 482.65625 20.777344 Z M 492.746094 26.117188 C 492.746094 25.671875 492.746094 25.226562 492.746094 24.929688 C 493.042969 25.226562 493.191406 25.671875 493.488281 26.117188 C 493.191406 26.117188 492.894531 26.117188 492.746094 26.117188 Z M 499.128906 27.898438 Z M 510.109375 19.441406 C 509.960938 19.441406 509.960938 19.441406 510.109375 19.441406 C 510.257812 19.292969 510.257812 19.144531 510.257812 19.144531 C 510.257812 19.144531 510.109375 19.292969 510.109375 19.441406 Z M 528.214844 22.558594 C 528.066406 22.261719 527.769531 21.964844 527.769531 21.816406 C 528.066406 22.113281 528.214844 22.261719 528.511719 22.558594 C 528.363281 22.558594 528.214844 22.558594 528.214844 22.558594 Z M 551.808594 29.53125 Z M 561.308594 45.707031 C 561.457031 45.707031 561.457031 45.707031 561.308594 45.707031 C 561.457031 45.707031 561.457031 45.707031 561.308594 45.707031 C 561.457031 45.855469 561.457031 45.855469 561.605469 45.855469 C 561.753906 46.003906 561.902344 46.300781 562.050781 46.449219 C 561.753906 46.152344 561.605469 46.003906 561.308594 45.707031 Z M 568.726562 20.035156 C 567.542969 18.550781 565.910156 17.808594 564.128906 17.660156 C 564.277344 17.066406 564.128906 16.621094 563.980469 16.027344 C 563.980469 15.878906 563.832031 15.878906 563.832031 15.878906 C 564.277344 15.878906 564.722656 15.878906 565.167969 15.730469 C 566.949219 14.691406 568.726562 14.988281 570.507812 16.027344 C 570.507812 16.472656 570.507812 16.917969 570.65625 17.214844 C 569.320312 17.957031 568.875 18.996094 568.726562 20.035156 Z M 575.554688 145.582031 C 575.554688 145.582031 575.40625 145.433594 575.40625 145.433594 C 575.554688 145.433594 575.554688 145.433594 575.703125 145.285156 C 575.554688 145.433594 575.554688 145.582031 575.554688 145.582031 Z M 584.753906 44.074219 C 584.609375 44.074219 584.609375 43.925781 584.753906 44.074219 C 584.609375 43.925781 584.753906 43.925781 584.753906 44.074219 C 584.753906 43.925781 584.753906 44.074219 584.753906 44.074219 Z M 586.386719 49.566406 C 586.386719 49.566406 586.386719 49.417969 586.386719 49.417969 C 586.386719 49.566406 586.535156 49.566406 586.535156 49.566406 C 586.535156 49.566406 586.535156 49.566406 586.386719 49.566406 Z M 593.808594 62.921875 Z M 593.957031 63.664062 Z M 593.957031 63.367188 C 593.957031 63.21875 594.105469 63.070312 594.105469 62.921875 C 594.105469 62.921875 593.808594 62.773438 593.808594 62.773438 C 593.808594 62.773438 593.957031 62.625 593.957031 62.625 C 593.957031 62.773438 594.105469 62.921875 594.105469 63.070312 C 594.105469 63.070312 594.105469 63.070312 594.253906 63.070312 C 594.253906 63.21875 594.105469 63.367188 593.957031 63.367188 Z M 610.578125 112.191406 C 610.726562 112.042969 610.726562 112.042969 610.578125 112.191406 C 610.726562 112.191406 610.726562 112.191406 610.578125 112.191406 Z M 617.40625 82.363281 C 617.40625 82.363281 617.40625 82.214844 617.40625 82.363281 C 617.40625 82.214844 617.40625 82.214844 617.40625 82.363281 C 617.40625 82.214844 617.40625 82.363281 617.40625 82.363281 Z M 682.109375 75.089844 Z M 682.109375 75.238281 Z M 678.84375 93.9375 C 677.804688 93.34375 676.617188 93.195312 675.429688 93.195312 C 675.132812 93.195312 674.984375 93.195312 674.6875 93.195312 C 675.132812 93.046875 675.429688 92.75 675.875 92.601562 C 677.359375 91.5625 679.140625 90.824219 680.328125 89.488281 C 682.109375 90.675781 683.742188 90.675781 685.371094 89.191406 C 685.519531 89.488281 685.816406 89.785156 686.113281 90.082031 C 686.410156 90.230469 686.707031 90.378906 687.003906 90.378906 C 683.890625 90.675781 681.070312 91.121094 678.84375 93.9375 Z M 686.855469 86.964844 C 687.152344 86.964844 687.300781 87.113281 687.449219 87.410156 C 687.152344 87.261719 687.003906 87.113281 686.855469 86.964844 Z M 698.285156 100.320312 C 698.433594 100.320312 698.433594 100.320312 698.582031 100.320312 C 699.175781 100.320312 699.769531 100.320312 700.511719 100.171875 C 700.660156 100.320312 700.660156 100.46875 700.808594 100.46875 C 701.25 100.617188 701.695312 100.46875 701.84375 100.023438 C 702.734375 99.875 703.773438 99.726562 704.664062 99.429688 C 705.40625 99.132812 705.851562 98.539062 706.296875 97.945312 C 707.335938 97.945312 708.375 97.945312 709.414062 97.945312 C 709.414062 98.539062 709.414062 99.132812 709.414062 99.578125 C 709.117188 104.476562 708.96875 104.476562 703.476562 105.960938 C 703.03125 106.109375 702.585938 106.554688 701.992188 106.851562 C 701.398438 106.851562 700.808594 106.851562 700.214844 106.851562 C 699.769531 106.109375 699.472656 105.21875 698.730469 104.625 C 697.394531 103.140625 697.394531 101.804688 698.285156 100.320312 Z M 696.652344 107.148438 C 696.503906 107.59375 696.652344 108.035156 696.800781 108.480469 C 696.800781 108.480469 696.652344 108.480469 696.652344 108.480469 C 696.652344 108.480469 696.503906 108.480469 696.503906 108.480469 C 696.503906 108.332031 696.503906 107.742188 696.503906 107.742188 Z M 696.652344 107.148438 "/></g></g></svg>