<svg xmlns="http://www.w3.org/2000/svg" xmlns:xlink="http://www.w3.org/1999/xlink" width="5000" zoomAndPan="magnify" viewBox="0 0 3750 1124.99995" height="1500" preserveAspectRatio="xMidYMid meet" version="1.2"><defs><clipPath id="0bd76960f2"><path d="M 314 515 L 1197 515 L 1197 1105.824219 L 314 1105.824219 Z M 314 515 "/></clipPath><clipPath id="a8e763c572"><path d="M 4 18.324219 L 1507 18.324219 L 1507 765 L 4 765 Z M 4 18.324219 "/></clipPath></defs><g id="90e0286eaa"><g clip-rule="nonzero" clip-path="url(#0bd76960f2)"><path style=" stroke:none;fill-rule:nonzero;fill:#ffffff;fill-opacity:1;" d="M 1093.167969 882.617188 L 924.183594 882.617188 C 862 882.617188 801.917969 905.148438 755.203125 944.503906 C 708.335938 905 648.40625 882.617188 586.21875 882.617188 L 417.386719 882.617188 L 417.386719 515.0625 L 314.492188 515.0625 L 314.492188 985.660156 L 586.367188 985.660156 C 637.289062 985.660156 683.703125 1009.09375 714.046875 1049.949219 L 755.351562 1105.824219 L 796.660156 1049.949219 C 827 1009.09375 873.414062 985.660156 924.335938 985.660156 L 1196.210938 985.660156 L 1196.210938 515.0625 L 1093.167969 515.0625 Z M 1093.167969 882.617188 "/></g><path style=" stroke:none;fill-rule:nonzero;fill:#ffffff;fill-opacity:1;" d="M 502.855469 633.125 L 619.414062 633.125 L 619.414062 749.683594 L 502.855469 749.683594 Z M 502.855469 633.125 "/><path style=" stroke:none;fill-rule:nonzero;fill:#ffffff;fill-opacity:1;" d="M 696.921875 633.125 L 813.480469 633.125 L 813.480469 749.683594 L 696.921875 749.683594 Z M 696.921875 633.125 "/><path style=" stroke:none;fill-rule:nonzero;fill:#ffffff;fill-opacity:1;" d="M 890.988281 633.125 L 1007.550781 633.125 L 1007.550781 749.683594 L 890.988281 749.683594 Z M 890.988281 633.125 "/><g clip-rule="nonzero" clip-path="url(#a8e763c572)"><path style=" stroke:none;fill-rule:nonzero;fill:#ffffff;fill-opacity:1;" d="M 1384.121094 605.484375 L 1384.121094 328.351562 L 1506.238281 284.945312 L 755.203125 18.476562 L 4.164062 284.945312 L 755.203125 551.5625 L 1281.078125 364.855469 L 1281.078125 605.484375 C 1258.996094 621.40625 1244.578125 647.394531 1244.578125 676.835938 C 1244.578125 725.5 1283.929688 764.855469 1332.597656 764.855469 C 1381.265625 764.855469 1420.621094 725.5 1420.621094 676.835938 C 1420.621094 647.542969 1406.199219 621.558594 1384.121094 605.484375 Z M 1384.121094 605.484375 "/></g><g style="fill:#ffffff;fill-opacity:1;"><g transform="translate(1598.77567, 754.899266)"><path style="stroke:none" d="M 351.453125 0 L 275.296875 0 L 247.75 -84.421875 L 107.46875 -84.421875 L 79.90625 0 L 5.515625 0 L 132.015625 -366.234375 L 224.953125 -366.234375 Z M 174.09375 -289.828125 L 127 -145.296875 L 227.703125 -145.296875 L 180.359375 -289.828125 Z M 174.09375 -289.828125 "/></g></g><g style="fill:#ffffff;fill-opacity:1;"><g transform="translate(1955.731871, 754.899266)"><path style="stroke:none" d="M 129.265625 5.265625 C 110.390625 5.265625 93.101562 3.050781 77.40625 -1.375 C 61.707031 -5.800781 48.304688 -11.894531 37.203125 -19.65625 C 26.097656 -27.425781 17.875 -36.320312 12.53125 -46.34375 L 51.109375 -87.921875 L 56.359375 -87.921875 C 65.546875 -75.566406 76.398438 -66.300781 88.921875 -60.125 C 101.453125 -53.945312 115.066406 -50.859375 129.765625 -50.859375 C 143.285156 -50.859375 153.46875 -53.273438 160.3125 -58.109375 C 167.164062 -62.953125 170.59375 -69.882812 170.59375 -78.90625 C 170.59375 -85.925781 168.128906 -91.8125 163.203125 -96.5625 C 158.273438 -101.320312 150.300781 -105.039062 139.28125 -107.71875 L 102.703125 -116.484375 C 75.316406 -122.992188 55.316406 -132.96875 42.703125 -146.40625 C 30.097656 -159.851562 23.796875 -176.929688 23.796875 -197.640625 C 23.796875 -214.847656 28.175781 -229.796875 36.9375 -242.484375 C 45.707031 -255.179688 58.066406 -264.867188 74.015625 -271.546875 C 89.972656 -278.222656 108.554688 -281.5625 129.765625 -281.5625 C 154.640625 -281.5625 175.257812 -277.96875 191.625 -270.78125 C 208 -263.601562 220.78125 -254.003906 229.96875 -241.984375 L 192.890625 -201.90625 L 187.875 -201.90625 C 180.195312 -210.59375 171.554688 -216.9375 161.953125 -220.9375 C 152.347656 -224.945312 141.617188 -226.953125 129.765625 -226.953125 C 102.367188 -226.953125 88.671875 -218.4375 88.671875 -201.40625 C 88.671875 -194.226562 91.21875 -188.382812 96.3125 -183.875 C 101.40625 -179.363281 110.382812 -175.6875 123.25 -172.84375 L 157.3125 -165.328125 C 185.375 -159.316406 205.875 -149.671875 218.8125 -136.390625 C 231.757812 -123.117188 238.234375 -105.296875 238.234375 -82.921875 C 238.234375 -65.378906 233.890625 -49.925781 225.203125 -36.5625 C 216.515625 -23.207031 203.988281 -12.894531 187.625 -5.625 C 171.257812 1.632812 151.804688 5.265625 129.265625 5.265625 Z M 129.265625 5.265625 "/></g></g><g style="fill:#ffffff;fill-opacity:1;"><g transform="translate(2210.485892, 754.899266)"><path style="stroke:none" d="M 39.828125 111.96875 L 39.828125 -276.3125 L 109.21875 -276.3125 L 109.21875 -240.234375 L 114.484375 -239.234375 C 122.660156 -253.253906 133.597656 -263.8125 147.296875 -270.90625 C 160.992188 -278.007812 177.023438 -281.5625 195.390625 -281.5625 C 217.597656 -281.5625 237.007812 -276.300781 253.625 -265.78125 C 270.25 -255.257812 283.191406 -239.269531 292.453125 -217.8125 C 301.722656 -196.351562 306.359375 -169.757812 306.359375 -138.03125 C 306.359375 -106.46875 301.472656 -79.992188 291.703125 -58.609375 C 281.941406 -37.234375 268.375 -21.242188 251 -10.640625 C 233.632812 -0.0351562 213.597656 5.265625 190.890625 5.265625 C 173.679688 5.265625 158.8125 2.382812 146.28125 -3.375 C 133.757812 -9.144531 123.160156 -18.125 114.484375 -30.3125 L 109.21875 -29.3125 L 109.21875 111.96875 Z M 171.59375 -53.609375 C 192.300781 -53.609375 208 -60.367188 218.6875 -73.890625 C 229.375 -87.421875 234.71875 -108.800781 234.71875 -138.03125 C 234.71875 -167.25 229.375 -188.664062 218.6875 -202.28125 C 208 -215.894531 192.300781 -222.703125 171.59375 -222.703125 C 152.21875 -222.703125 136.851562 -215.6875 125.5 -201.65625 C 114.144531 -187.625 108.46875 -166.414062 108.46875 -138.03125 C 108.46875 -109.800781 114.144531 -88.671875 125.5 -74.640625 C 136.851562 -60.617188 152.21875 -53.609375 171.59375 -53.609375 Z M 171.59375 -53.609375 "/></g></g><g style="fill:#ffffff;fill-opacity:1;"><g transform="translate(2541.390557, 754.899266)"><path style="stroke:none" d="M 74.40625 -309.375 C 61.875 -309.375 51.679688 -313.171875 43.828125 -320.765625 C 35.984375 -328.367188 32.0625 -338.179688 32.0625 -350.203125 C 32.0625 -362.054688 35.984375 -371.78125 43.828125 -379.375 C 51.679688 -386.976562 61.875 -390.78125 74.40625 -390.78125 C 82.75 -390.78125 90.175781 -389.023438 96.6875 -385.515625 C 103.207031 -382.015625 108.257812 -377.21875 111.84375 -371.125 C 115.4375 -365.03125 117.234375 -358.054688 117.234375 -350.203125 C 117.234375 -342.359375 115.4375 -335.34375 111.84375 -329.15625 C 108.257812 -322.976562 103.207031 -318.132812 96.6875 -314.625 C 90.175781 -311.125 82.75 -309.375 74.40625 -309.375 Z M 39.828125 0 L 39.828125 -276.3125 L 109.21875 -276.3125 L 109.21875 0 Z M 39.828125 0 "/></g></g><g style="fill:#ffffff;fill-opacity:1;"><g transform="translate(2690.1849, 754.899266)"><path style="stroke:none" d="M 39.828125 0 L 39.828125 -276.3125 L 107.21875 -276.3125 L 107.21875 -235.21875 L 112.46875 -234.21875 C 119.15625 -249.582031 127.925781 -260.851562 138.78125 -268.03125 C 149.632812 -275.21875 162.828125 -278.8125 178.359375 -278.8125 C 194.054688 -278.8125 206 -276.140625 214.1875 -270.796875 L 202.40625 -210.921875 L 197.140625 -209.921875 C 192.628906 -211.753906 188.285156 -213.085938 184.109375 -213.921875 C 179.941406 -214.765625 174.851562 -215.1875 168.84375 -215.1875 C 149.46875 -215.1875 134.6875 -208.378906 124.5 -194.765625 C 114.3125 -181.148438 109.21875 -159.316406 109.21875 -129.265625 L 109.21875 0 Z M 39.828125 0 "/></g></g><g style="fill:#ffffff;fill-opacity:1;"><g transform="translate(2906.863599, 754.899266)"><path style="stroke:none" d="M 273.046875 -122.5 L 95.4375 -122.5 C 97.445312 -98.445312 104.296875 -80.953125 115.984375 -70.015625 C 127.671875 -59.078125 143.617188 -53.609375 163.828125 -53.609375 C 179.691406 -53.609375 192.550781 -56.570312 202.40625 -62.5 C 212.257812 -68.425781 220.191406 -77.40625 226.203125 -89.4375 L 231.46875 -89.4375 L 277.5625 -59.875 C 268.539062 -40.5 254.925781 -24.796875 236.71875 -12.765625 C 218.519531 -0.742188 194.222656 5.265625 163.828125 5.265625 C 135.273438 5.265625 110.601562 -0.160156 89.8125 -11.015625 C 69.019531 -21.878906 52.984375 -38.039062 41.703125 -59.5 C 30.429688 -80.957031 24.796875 -107.132812 24.796875 -138.03125 C 24.796875 -169.425781 30.722656 -195.894531 42.578125 -217.4375 C 54.441406 -238.976562 70.476562 -255.050781 90.6875 -265.65625 C 110.894531 -276.257812 133.601562 -281.5625 158.8125 -281.5625 C 197.894531 -281.5625 227.832031 -271.207031 248.625 -250.5 C 269.414062 -229.789062 279.8125 -199.394531 279.8125 -159.3125 C 279.8125 -144.789062 279.3125 -133.519531 278.3125 -125.5 Z M 213.421875 -167.34375 C 212.753906 -188.382812 207.867188 -203.703125 198.765625 -213.296875 C 189.671875 -222.898438 176.351562 -227.703125 158.8125 -227.703125 C 123.75 -227.703125 103.125 -207.582031 96.9375 -167.34375 Z M 213.421875 -167.34375 "/></g></g><g style="fill:#ffffff;fill-opacity:1;"><g transform="translate(3207.20781, 754.899266)"><path style="stroke:none" d="M 114.734375 5.265625 C 89.847656 5.265625 70.847656 -1.457031 57.734375 -14.90625 C 44.628906 -28.351562 38.078125 -48.769531 38.078125 -76.15625 L 38.078125 -387.28125 L 107.46875 -387.28125 L 107.46875 -78.90625 C 107.46875 -62.039062 114.484375 -53.609375 128.515625 -53.609375 C 132.515625 -53.609375 136.769531 -54.273438 141.28125 -55.609375 L 144.796875 -54.609375 L 151.046875 -1.25 C 147.210938 0.75 142.117188 2.332031 135.765625 3.5 C 129.421875 4.675781 122.410156 5.265625 114.734375 5.265625 Z M 114.734375 5.265625 "/></g></g><g style="fill:#ffffff;fill-opacity:1;"><g transform="translate(3366.021974, 754.899266)"><path style="stroke:none" d="M 61.125 117.234375 C 49.269531 117.234375 38.539062 116.3125 28.9375 114.46875 C 19.332031 112.632812 11.523438 110.21875 5.515625 107.21875 L 16.53125 51.109375 L 21.046875 49.59375 C 25.222656 51.769531 30.398438 53.523438 36.578125 54.859375 C 42.753906 56.191406 49.097656 56.859375 55.609375 56.859375 C 66.796875 56.859375 76.101562 55.394531 83.53125 52.46875 C 90.96875 49.550781 97.273438 44.710938 102.453125 37.953125 C 107.628906 31.191406 112.222656 21.796875 116.234375 9.765625 L 6.015625 -276.3125 L 78.65625 -276.3125 L 147.296875 -84.171875 L 153.3125 -84.171875 L 220.1875 -276.3125 L 290.828125 -276.3125 L 179.859375 17.28125 C 171.003906 41 161.273438 60.078125 150.671875 74.515625 C 140.066406 88.960938 127.539062 99.691406 113.09375 106.703125 C 98.65625 113.722656 81.332031 117.234375 61.125 117.234375 Z M 61.125 117.234375 "/></g></g></g></svg>